<svg width="40" height="40" viewBox="0 0 40 40" fill="none" xmlns="http://www.w3.org/2000/svg">
<g clip-path="url(#clip0_7_3765)">
<path fill-rule="evenodd" clip-rule="evenodd" d="M8.333 9C7.18382 9 6.0817 9.45651 5.26911 10.2691C4.45651 11.0817 4 12.1838 4 13.333V26.667C4 27.8162 4.45651 28.9183 5.26911 29.7309C6.0817 30.5435 7.18382 31 8.333 31H31.666C32.2351 31.0001 32.7987 30.8882 33.3245 30.6705C33.8503 30.4528 34.3281 30.1336 34.7305 29.7312C35.133 29.3289 35.4523 28.8512 35.6701 28.3254C35.8879 27.7996 36 27.2361 36 26.667V13.333C36 12.7639 35.8879 12.2004 35.6701 11.6746C35.4523 11.1488 35.133 10.6711 34.7305 10.2688C34.3281 9.86638 33.8503 9.54724 33.3245 9.32954C32.7987 9.11185 32.2351 8.99987 31.666 9H8.333ZM7.601 11.117C7.831 11.041 8.077 11 8.333 11H31.666C31.922 11 32.169 11.041 32.399 11.117L21.4 19.367C20.57 19.989 19.43 19.989 18.6 19.367L7.601 11.117ZM6.144 12.524C6.04829 12.7833 5.99953 13.0576 6 13.334V26.667C6 27.2857 6.2458 27.8792 6.68332 28.3167C7.12084 28.7542 7.71425 29 8.333 29H31.666C31.9725 29.0001 32.2759 28.9399 32.5591 28.8227C32.8423 28.7055 33.0996 28.5337 33.3163 28.317C33.5331 28.1004 33.705 27.8431 33.8223 27.56C33.9396 27.2769 34 26.9735 34 26.667V13.333C34 13.049 33.949 12.777 33.856 12.525L22.6 20.967C21.8499 21.5295 20.9376 21.8335 20 21.8335C19.0624 21.8335 18.1501 21.5295 17.4 20.967L6.144 12.524Z" fill="#332E69"/>
</g>
<defs>
<clipPath id="clip0_7_3765">
<rect width="40" height="40" fill="white"/>
</clipPath>
</defs>
</svg>
