<svg width="40" height="40" viewBox="0 0 40 40" fill="none" xmlns="http://www.w3.org/2000/svg">
<g clip-path="url(#clip0_7_3773)">
<path fill-rule="evenodd" clip-rule="evenodd" d="M31.863 21.768C33.238 20.3928 34.0105 18.5277 34.0105 16.583C34.0105 14.6383 33.238 12.7732 31.863 11.398C31.6463 11.1812 31.3891 11.0093 31.106 10.892C30.8229 10.7747 30.5194 10.7143 30.213 10.7143C29.9065 10.7143 29.6031 10.7747 29.32 10.892C29.0368 11.0093 28.7796 11.1812 28.563 11.398L27.09 12.87C26.7308 13.2294 26.529 13.7168 26.529 14.225C26.529 14.7331 26.7308 15.2205 27.09 15.58C27.4538 15.9437 27.7424 16.3756 27.9393 16.8508C28.1361 17.3261 28.2375 17.8355 28.2375 18.35C28.2375 18.8644 28.1361 19.3738 27.9393 19.8491C27.7424 20.3244 27.4538 20.7562 27.09 21.12L21.787 26.423C21.4232 26.7868 20.9914 27.0754 20.5161 27.2723C20.0408 27.4692 19.5314 27.5705 19.017 27.5705C18.5025 27.5705 17.9931 27.4692 17.5178 27.2723C17.0425 27.0754 16.6107 26.7868 16.247 26.423C15.8875 26.0638 15.4001 25.862 14.892 25.862C14.3838 25.862 13.8964 26.0638 13.537 26.423L12.064 27.896C11.8472 28.1126 11.6753 28.3699 11.558 28.653C11.4407 28.9361 11.3803 29.2395 11.3803 29.546C11.3803 29.8524 11.4407 30.1559 11.558 30.439C11.6753 30.7221 11.8472 30.9793 12.064 31.196C12.7449 31.877 13.5533 32.4172 14.4431 32.7858C15.3328 33.1544 16.2864 33.3441 17.2495 33.3441C18.2125 33.3441 19.1661 33.1544 20.0559 32.7858C20.9456 32.4172 21.754 31.877 22.435 31.196L31.863 21.768ZM33.277 9.98298C34.1438 10.8497 34.8314 11.8786 35.3005 13.011C35.7696 14.1435 36.0111 15.3572 36.0111 16.583C36.0111 17.8087 35.7696 19.0225 35.3005 20.1549C34.8314 21.2874 34.1438 22.3163 33.277 23.183L23.85 32.61C22.9833 33.4768 21.9544 34.1644 20.8219 34.6335C19.6895 35.1027 18.4757 35.3441 17.25 35.3441C16.0242 35.3441 14.8104 35.1027 13.678 34.6335C12.5456 34.1644 11.5166 33.4768 10.65 32.61C10.2474 32.2076 9.9281 31.7299 9.71024 31.204C9.49238 30.6782 9.38025 30.1146 9.38025 29.5455C9.38025 28.9763 9.49238 28.4127 9.71024 27.8869C9.9281 27.3611 10.2474 26.8834 10.65 26.481L12.124 25.008C12.4877 24.6442 12.9195 24.3556 13.3948 24.1587C13.8701 23.9618 14.3795 23.8605 14.894 23.8605C15.4084 23.8605 15.9178 23.9618 16.3931 24.1587C16.8684 24.3556 17.3002 24.6442 17.664 25.008C18.0234 25.3672 18.5108 25.5689 19.019 25.5689C19.5271 25.5689 20.0145 25.3672 20.374 25.008L25.677 19.705C26.0361 19.3455 26.2379 18.8581 26.2379 18.35C26.2379 17.8418 26.0361 17.3544 25.677 16.995C25.3132 16.6312 25.0246 16.1994 24.8277 15.7241C24.6308 15.2488 24.5294 14.7394 24.5294 14.225C24.5294 13.7105 24.6308 13.2011 24.8277 12.7258C25.0246 12.2506 25.3132 11.8187 25.677 11.455L27.15 9.98198C27.5523 9.57959 28.03 9.2604 28.5557 9.04263C29.0814 8.82485 29.6449 8.71277 30.214 8.71277C30.783 8.71277 31.3465 8.82485 31.8722 9.04263C32.3979 9.2604 32.8756 9.57959 33.278 9.98198L33.277 9.98298ZM21.229 13.68L20.263 13.94C18.9066 14.3033 17.6698 15.0173 16.6768 16.0101C15.6838 17.003 14.9696 18.2397 14.606 19.596L14.347 20.562L12.415 20.044L12.674 19.078C13.1284 17.3826 14.0211 15.8368 15.2623 14.5957C16.5036 13.3547 18.0495 12.4622 19.745 12.008L20.711 11.748L21.229 13.68Z" fill="#332E69"/>
<path fill-rule="evenodd" clip-rule="evenodd" d="M20.667 8.66699C19.1787 8.66686 17.7048 8.9599 16.3298 9.52938C14.9547 10.0989 13.7052 10.9336 12.6527 11.986C11.6002 13.0384 10.7654 14.2878 10.1958 15.6628C9.62618 17.0379 9.33301 18.5116 9.33301 20V21H7.33301V20C7.33301 18.249 7.67791 16.5151 8.34802 14.8974C9.01813 13.2797 10.0003 11.8099 11.2385 10.5718C12.4767 9.33369 13.9466 8.35161 15.5644 7.68162C17.1821 7.01163 18.916 6.66686 20.667 6.66699H21.667V8.66699H20.667Z" fill="#332E69"/>
</g>
<defs>
<clipPath id="clip0_7_3773">
<rect width="40" height="40" fill="white"/>
</clipPath>
</defs>
</svg>
