<svg width="40" height="40" viewBox="0 0 40 40" fill="none" xmlns="http://www.w3.org/2000/svg">
<g clip-path="url(#clip0_7_3782)">
<path fill-rule="evenodd" clip-rule="evenodd" d="M10.333 7.66699C9.71425 7.66699 9.12084 7.91279 8.68332 8.35031C8.2458 8.78783 8 9.38124 8 9.99999V23.333C7.99987 23.6395 8.06012 23.9429 8.1773 24.2261C8.29449 24.5093 8.46631 24.7666 8.68297 24.9833C8.89962 25.2001 9.15685 25.372 9.43997 25.4893C9.72309 25.6066 10.0265 25.667 10.333 25.667H12C12.707 25.6673 13.3849 25.9482 13.8849 26.4481C14.3848 26.9481 14.6657 27.626 14.666 28.333V32.045C14.666 32.625 15.356 32.928 15.784 32.536L22.513 26.368C23.005 25.917 23.648 25.667 24.315 25.667H30.333C30.6395 25.6671 30.9431 25.6068 31.2263 25.4896C31.5096 25.3723 31.7669 25.2004 31.9837 24.9837C32.2004 24.7669 32.3724 24.5096 32.4896 24.2263C32.6068 23.9431 32.6671 23.6395 32.667 23.333V9.99999C32.667 9.69353 32.6066 9.39008 32.4893 9.10696C32.372 8.82384 32.2001 8.56661 31.9833 8.34996C31.7666 8.13331 31.5093 7.96148 31.2261 7.84429C30.9429 7.72711 30.6395 7.66686 30.333 7.66699H10.333ZM6 9.99999C6 8.85081 6.45651 7.74869 7.26911 6.9361C8.0817 6.1235 9.18382 5.66699 10.333 5.66699H30.333C30.9021 5.66686 31.4657 5.77884 31.9915 5.99654C32.5173 6.21423 32.9951 6.53338 33.3975 6.93575C33.8 7.33811 34.1193 7.81582 34.3371 8.34159C34.5549 8.86736 34.667 9.43089 34.667 9.99999V23.333C34.6671 23.9022 34.5551 24.4658 34.3374 24.9917C34.1196 25.5176 33.8004 25.9954 33.3979 26.3979C32.9954 26.8004 32.5176 27.1196 31.9917 27.3374C31.4658 27.5551 30.9022 27.6671 30.333 27.667H24.315C24.1484 27.6671 23.9879 27.7295 23.865 27.842L17.135 34.01C15.425 35.578 12.666 34.365 12.666 32.045V28.333C12.6657 28.1564 12.5955 27.9872 12.4706 27.8624C12.3458 27.7375 12.1766 27.6673 12 27.667H10.333C9.7639 27.667 9.20037 27.5549 8.6746 27.3371C8.14883 27.1193 7.67112 26.8 7.26875 26.3975C6.86638 25.9951 6.54724 25.5173 6.32954 24.9915C6.11185 24.4656 5.99987 23.9021 6 23.333V9.99999Z" fill="#332E69"/>
<path d="M13.667 14.333H27V12.333H13.667V14.333ZM13.667 21H20.333V19H13.667V21Z" fill="#332E69"/>
</g>
<defs>
<clipPath id="clip0_7_3782">
<rect width="40" height="40" fill="white"/>
</clipPath>
</defs>
</svg>
