<svg width="110" height="37" viewBox="0 0 110 37" fill="none" xmlns="http://www.w3.org/2000/svg">
<g clip-path="url(#clip0_7_3851)">
<path d="M109.968 11.3562L104.214 12.5853C103.935 12.6552 103.649 12.6974 103.362 12.7107C102.684 12.7107 102.307 12.3166 102.23 11.5283V0H102.211L98.2777 0.847161V2.9745L98.11 3.01003C97.7418 2.44963 97.2325 1.99597 96.6333 1.69465C96.0341 1.39334 95.3661 1.25499 94.6965 1.2935C94.2029 1.3064 93.7115 1.36325 93.228 1.46338C92.332 1.64627 91.4693 1.9653 90.6699 2.40936L90.5288 2.49263C89.4343 3.15277 88.4942 4.03987 87.7718 5.09407C86.8947 6.36706 86.2821 7.803 85.9701 9.31689C85.6582 10.8308 85.6532 12.3918 85.9557 13.9077C86.0967 14.5983 86.3278 15.2667 86.6421 15.8962L86.831 16.2659L84.0695 16.8966C83.7918 16.9665 83.5075 17.0076 83.2209 17.0198C82.4766 17.0198 82.1079 16.6112 82.0879 15.6697V10.0882C82.0798 9.31726 82.001 8.54867 81.8524 7.79211C81.5169 6.21215 80.5927 5.21953 79.212 4.92086L79.0843 4.89866C78.8182 4.85057 78.5482 4.82716 78.2779 4.82871C77.8558 4.83204 77.4348 4.87867 77.0227 4.96861C76.8072 5.01635 76.5894 5.07297 76.3751 5.13848C75.5686 5.33834 73.4315 6.11111 71.4098 8.96792C70.9799 7.89647 70.2712 7.2525 69.2504 7.03266C68.9568 6.9711 68.6574 6.94132 68.3574 6.94384C67.8797 6.94939 67.4032 7.0049 66.9378 7.10927C66.0986 7.27901 65.2898 7.57395 64.5384 7.98419C64.49 8.00964 64.4425 8.03705 64.3963 8.06635C63.3429 8.65143 62.5225 9.58039 62.0725 10.6978L61.867 10.7433V8.61595L57.9192 9.45534V22.4614L48.5441 24.4644V17.907C49.0162 15.8307 50.1992 14.6238 52.1153 14.213C52.4708 14.1353 52.834 14.0942 53.1983 14.0909C53.556 14.0884 53.9124 14.1358 54.2569 14.2319L54.2314 10.1826V10.1271C54.026 10.0661 53.8124 10.0372 53.5982 10.0416C53.295 10.0455 52.9931 10.0812 52.6974 10.1482C52.0013 10.2906 51.3358 10.5544 50.7313 10.9276L50.6124 11.0042C49.6926 11.6033 48.9988 12.4917 48.6408 13.529L48.3753 13.5857V11.4816L44.4897 12.3088L44.4275 12.3199L42.1137 12.8151L42.1682 16.1927L44.4275 15.7197V25.3393L40.4775 26.1832C40.1998 26.2531 39.9155 26.2953 39.6289 26.3086C38.8847 26.3086 38.4992 25.8368 38.4825 24.8908V13.5923L37.1718 13.8666L34.6003 14.4151L34.5081 14.4339V16.5624L34.3304 16.5979L34.0694 16.2815C33.3596 15.3355 32.3099 14.8758 30.9436 14.8792C30.4495 14.8835 29.9572 14.9405 29.4751 15.049C27.2495 15.493 25.2889 16.7964 24.0189 18.6764C23.7767 19.0306 23.5535 19.3981 23.3524 19.7756C23.3102 19.8533 23.268 19.9366 23.2247 20.0132L23.1902 20.0909C22.9727 20.5306 22.7845 20.9842 22.6271 21.4488L22.436 21.9407C20.892 26.7816 19.4424 28.1762 18.0884 29.4463C11.8168 35.2865 5.35312 32.322 4.41005 27.7476C3.6847 24.2157 4.66109 21.6709 6.17066 19.5069C7.58914 17.4795 9.50415 16.2215 12.0623 15.6775C12.7511 15.5318 13.4533 15.4589 14.1573 15.4599C14.455 15.4599 14.7638 15.4599 15.0814 15.4932L15.3669 15.5154L15.4691 19.1261L18.6482 18.4488V12.3599C17.9984 12.0246 17.0076 11.8269 15.6979 11.7759C14.2692 11.6761 12.8335 11.7762 11.4325 12.0734C7.79575 12.8495 4.8677 14.6327 2.73164 17.374C0.301225 20.5428 -0.608515 24.9241 0.454515 29.151C2.01296 35.3376 7.39142 36.4368 9.34864 36.5501C14.5827 36.8554 18.6726 33.63 18.6726 33.63C19.9789 32.6007 21.0786 31.6903 22.7759 29.292L23.0358 29.7361C23.9811 31.3594 25.5162 32.2154 27.5112 32.2121C27.8958 32.2108 28.2797 32.1811 28.6598 32.1233L28.7287 32.1122C30.0072 31.9556 33.0408 31.6125 35.2535 28.4104C35.9033 29.4508 36.8819 29.9649 38.2482 29.9649C38.5248 29.9615 38.8002 29.9415 39.0735 29.9049L62.0225 25.0173V14.827C62.5623 12.8917 63.7942 11.546 65.3515 11.2152C65.5793 11.1652 65.8114 11.1375 66.0447 11.1352C67.0222 11.1352 67.6309 11.6604 67.8531 12.6963C67.9252 13.0627 67.973 13.4324 67.9941 13.8044V23.7372L72.1074 22.8622V12.6397C72.5639 10.8721 73.8836 9.39427 75.3176 9.09227C75.5586 9.03898 75.8052 9.01122 76.0507 9.009C77.0349 9.009 77.6658 9.51974 77.8724 10.4946C77.9446 10.9709 77.9779 11.4528 77.9724 11.9346V16.2626C77.9375 16.9595 77.986 17.658 78.1168 18.3433C78.4411 19.8733 79.6608 20.7438 81.3303 20.7438C81.7558 20.7371 82.1801 20.6883 82.5966 20.5995C82.8332 20.5684 92.5471 18.5065 92.5471 18.5065C94.3677 18.0957 97.2202 17.6782 99.0153 14.8314C99.6629 15.8629 100.639 16.3703 102.001 16.3681C102.419 16.3626 102.836 16.3176 103.246 16.2337L109.984 14.797L109.968 11.3562ZM34.3482 24.7908C33.6839 26.8627 32.2532 28.3127 30.4571 28.6924C30.146 28.7613 29.8295 28.7979 29.5107 28.8013C27.84 28.8013 26.6904 27.7298 26.2727 25.7768C25.915 24.1002 26.2316 22.3882 27.2169 20.6916C27.6631 19.9514 28.2901 19.3365 29.0391 18.9048C29.7881 18.4731 30.6345 18.2386 31.499 18.2234C32.7775 18.2234 33.7328 18.8108 34.336 19.9755L34.3471 24.7908H34.3482ZM98.1166 11.1241C97.4613 13.2359 96.0195 14.7137 94.2022 15.099C93.8912 15.1678 93.5746 15.2045 93.2558 15.2089C91.5829 15.2089 90.4344 14.1375 90.0178 12.1834C89.6602 10.5068 89.9756 8.79471 90.9631 7.09928C91.3158 6.49807 91.7902 5.97714 92.3561 5.56988C92.9219 5.16263 93.5666 4.87803 94.2488 4.73433C94.581 4.66105 94.9186 4.6233 95.2586 4.62108C96.5515 4.62108 97.5135 5.21953 98.1289 6.40867L98.1166 11.1241Z" fill="#E83657"/>
</g>
<defs>
<clipPath id="clip0_7_3851">
<rect width="110" height="36.64" fill="white"/>
</clipPath>
</defs>
</svg>
