<svg width="78" height="44" viewBox="0 0 78 44" fill="none" xmlns="http://www.w3.org/2000/svg">
<rect x="0.5" y="0.5" width="77" height="43" rx="21.5" stroke="#EBE9FF"/>
<g clip-path="url(#clip0_7_3876)">
<path d="M13.3999 17.4H28.5999V18.6H13.3999V17.4Z" fill="#332E69"/>
<path d="M13.3999 21.4H28.5999V22.6H13.3999V21.4Z" fill="#332E69"/>
<path d="M28.5999 25.4H13.3999V26.6H28.5999V25.4Z" fill="#332E69"/>
</g>
<rect x="41" y="8" width="28" height="28" rx="14" fill="#332E69"/>
<g clip-path="url(#clip1_7_3876)">
<path fill-rule="evenodd" clip-rule="evenodd" d="M59 18C59 20.2091 57.2091 22 55 22C52.7909 22 51 20.2091 51 18C51 15.7909 52.7909 14 55 14C57.2091 14 59 15.7909 59 18ZM57.8 18C57.8 19.5464 56.5464 20.8 55 20.8C53.4536 20.8 52.2 19.5464 52.2 18C52.2 16.4536 53.4536 15.2 55 15.2C56.5464 15.2 57.8 16.4536 57.8 18Z" fill="white"/>
<path fill-rule="evenodd" clip-rule="evenodd" d="M52.9999 22.4C50.4594 22.4 48.3999 24.4595 48.3999 27V27.8329C48.3999 28.5503 48.6964 29.2972 49.3513 29.7502C50.5358 30.5695 52.6079 31.6 54.9999 31.6C57.3919 31.6 59.464 30.5695 60.6485 29.7502C61.3035 29.2972 61.5999 28.5503 61.5999 27.8329V27C61.5999 24.4595 59.5404 22.4 56.9999 22.4H52.9999ZM49.5999 27C49.5999 25.1222 51.1221 23.6 52.9999 23.6H56.9999C58.8777 23.6 60.3999 25.1222 60.3999 27V27.8329C60.3999 28.2386 60.2345 28.5774 59.9659 28.7633C58.9004 29.5002 57.0647 30.4 54.9999 30.4C52.9351 30.4 51.0994 29.5002 50.0339 28.7633C49.7653 28.5774 49.5999 28.2386 49.5999 27.8329V27Z" fill="white"/>
</g>
<defs>
<clipPath id="clip0_7_3876">
<rect width="24" height="24" fill="white" transform="translate(9 10)"/>
</clipPath>
<clipPath id="clip1_7_3876">
<rect width="24" height="24" fill="white" transform="translate(43 10)"/>
</clipPath>
</defs>
</svg>
