<svg width="40" height="40" viewBox="0 0 40 40" fill="none" xmlns="http://www.w3.org/2000/svg">
<rect width="40" height="40" rx="4" fill="white" fill-opacity="0.43"/>
<g clip-path="url(#clip0_7_3860)">
<path fill-rule="evenodd" clip-rule="evenodd" d="M22.5074 23.3559C21.2896 24.3818 19.717 25 18 25C14.134 25 11 21.866 11 18C11 14.134 14.134 11 18 11C21.866 11 25 14.134 25 18C25 19.717 24.3818 21.2896 23.3559 22.5074L28.8485 28L27.9999 28.8485L22.5074 23.3559ZM23.8 18C23.8 21.2033 21.2033 23.8 18 23.8C14.7968 23.8 12.2 21.2033 12.2 18C12.2 14.7968 14.7968 12.2 18 12.2C21.2033 12.2 23.8 14.7968 23.8 18Z" fill="#332E69"/>
</g>
<defs>
<clipPath id="clip0_7_3860">
<rect width="24" height="24" fill="white" transform="translate(8 8)"/>
</clipPath>
</defs>
</svg>
