<svg width="80" height="81" viewBox="0 0 80 81" fill="none" xmlns="http://www.w3.org/2000/svg">
<g clip-path="url(#clip0_7_4421)">
<path fill-rule="evenodd" clip-rule="evenodd" d="M77.0726 20.138L76.5046 19.77L72.0006 26.81L67.6006 24.002L72.0726 16.962L71.4966 16.594L66.5766 17.69L64.0166 21.69L63.2166 22.93L63.0006 23.282L63.9046 27.362L64.5686 27.786L51.8486 47.786L57.1286 51.138L69.8486 31.138L70.5126 31.562L74.5926 30.65L74.8086 30.298L75.6086 29.058L78.1686 25.058L77.0726 20.138Z" fill="#FE0B53"/>
<path fill-rule="evenodd" clip-rule="evenodd" d="M21.1364 27.61C20.8272 27.6737 20.5376 27.8099 20.2914 28.0074C20.0453 28.2049 19.8495 28.4581 19.7204 28.746C19.3284 31.026 19.9924 33.202 18.9204 35.266L7.52038 38.81C6.24838 39.25 6.10438 39.754 5.68038 40.938C5.68038 40.938 1.51238 68.034 1.84838 68.81C2.41016 69.8196 3.21605 70.6723 4.19238 71.29C4.89638 71.6259 30.7764 71.29 30.7764 71.29C32.2004 70.818 32.6324 70.178 33.3284 68.946L33.4724 47.602C33.4724 47.602 28.9044 29.21 28.7204 28.706C28.6192 28.4427 28.4581 28.2066 28.2498 28.0163C28.0415 27.8261 27.7918 27.687 27.5204 27.61C27.0484 27.562 21.6564 27.61 21.1364 27.61Z" fill="#FF617F"/>
<path fill-rule="evenodd" clip-rule="evenodd" d="M15.6242 14.186L14.9602 18.314C14.8802 19.714 12.3682 22.754 12.2322 23.49C12.0962 24.226 12.6962 24.594 13.4242 24.354C15.6619 22.5803 17.7053 20.5744 19.5202 18.37L19.9042 17.866C18.9104 16.211 17.4095 14.9205 15.6242 14.186Z" fill="#352C6D"/>
<path d="M27.7047 9.42603H13.7607V16.058C15.0967 16.506 16.4647 16.962 17.5447 17.298C20.7447 18.274 20.9527 23.738 20.9527 23.738H27.4567V20.482H33.2407L33.7367 19.842L27.7047 9.42603Z" fill="#6F66B0"/>
<path d="M8.63281 9.42603V14.274C8.63281 14.274 11.1448 15.17 13.7608 16.058V9.42603H8.63281Z" fill="#352C6D"/>
<path d="M20.5441 23.738H27.9361C28.2331 23.738 28.518 23.856 28.728 24.0661C28.9381 24.2761 29.0561 24.561 29.0561 24.858V28.858H19.4561V24.858C19.4559 24.5664 19.5695 24.2863 19.7727 24.0772C19.9759 23.868 20.2526 23.7464 20.5441 23.738Z" fill="#352C6D"/>
<path d="M6.01651 44.202C6.01651 44.202 3.03251 66.3379 2.81651 67.4019C2.60051 68.4659 3.75251 69.922 4.59251 70.298C5.43251 70.6739 26.8245 70.6739 28.3205 70.5779C29.5357 70.476 30.731 70.2068 31.8725 69.7779C32.3365 69.5859 32.7125 68.562 32.7125 67.906C32.7125 67.25 30.2165 57.37 24.5205 53.73C18.8245 50.0899 11.8085 46.4419 10.9685 43.6099C10.1285 40.7779 6.56051 40.178 6.01651 44.202Z" fill="#FE0B53"/>
<path fill-rule="evenodd" clip-rule="evenodd" d="M70.4889 71.3941H37.3369C36.9521 71.3941 36.583 71.2418 36.3101 70.9705C36.0373 70.6991 35.883 70.3308 35.8809 69.9461V42.7461C35.8801 42.0339 36.0979 41.3386 36.5049 40.7541L50.1609 25.3301C50.5814 24.7244 51.1424 24.2296 51.7958 23.8879C52.4491 23.5462 53.1755 23.3677 53.9129 23.3677C54.6502 23.3677 55.3766 23.5462 56.03 23.8879C56.6833 24.2296 57.2443 24.7244 57.6649 25.3301L71.3209 40.7301C71.7278 41.3146 71.9456 42.0099 71.9449 42.7221V69.9221C71.9481 70.1149 71.9127 70.3064 71.8409 70.4854C71.769 70.6644 71.6622 70.8273 71.5265 70.9644C71.3909 71.1015 71.2293 71.2101 71.0511 71.2839C70.8729 71.3577 70.6817 71.3952 70.4889 71.3941Z" fill="#6F66B0"/>
<path d="M53.9121 23.3621C54.6506 23.3593 55.3785 23.5372 56.0325 23.8802C56.6864 24.2232 57.2466 24.721 57.6641 25.3301L71.3201 40.7301C71.727 41.3146 71.9448 42.0099 71.9441 42.7221V69.9221C71.9441 70.1129 71.9064 70.3019 71.8331 70.4781C71.7598 70.6543 71.6525 70.8143 71.5172 70.9488C71.3819 71.0834 71.2213 71.1899 71.0447 71.2622C70.8681 71.3345 70.6789 71.3712 70.4881 71.3701H37.3361C36.9513 71.3701 36.5822 71.2178 36.3094 70.9465C36.0365 70.6752 35.8822 70.3069 35.8801 69.9221V42.7221C35.8794 42.0099 36.0972 41.3146 36.5041 40.7301L50.1601 25.3301C50.5781 24.7215 51.1383 24.2241 51.7922 23.8811C52.4461 23.5382 53.1738 23.36 53.9121 23.3621ZM53.9121 22.1621C52.9948 22.1593 52.0901 22.3757 51.2733 22.7931C50.4565 23.2106 49.7512 23.8171 49.2161 24.5621L35.6161 39.9141L35.5681 39.9621L35.5281 40.0261C34.9928 40.8132 34.7134 41.7463 34.7281 42.6981V69.8981C34.7302 70.6011 35.011 71.2747 35.5088 71.771C36.0067 72.2674 36.6811 72.5461 37.3841 72.5461H70.4881C71.1911 72.5461 71.8655 72.2674 72.3633 71.771C72.8612 71.2747 73.142 70.6011 73.1441 69.8981V42.6981C73.1471 41.742 72.8536 40.8085 72.3041 40.0261V39.9621L72.2561 39.9141L58.6561 24.5621C58.121 23.8171 57.4157 23.2106 56.5989 22.7931C55.7821 22.3757 54.8774 22.1593 53.9601 22.1621H53.9121Z" fill="#F8FBFE"/>
<path d="M53.9122 29.6901C55.2023 29.6901 56.2482 28.6442 56.2482 27.3541C56.2482 26.0639 55.2023 25.0181 53.9122 25.0181C52.622 25.0181 51.5762 26.0639 51.5762 27.3541C51.5762 28.6442 52.622 29.6901 53.9122 29.6901Z" fill="#FE0B53"/>
<path fill-rule="evenodd" clip-rule="evenodd" d="M39.1127 68.3621L52.8647 58.3141C53.1689 58.0917 53.5359 57.9719 53.9127 57.9719C54.2895 57.9719 54.6565 58.0917 54.9607 58.3141L68.6887 68.3621C68.7631 68.4242 68.817 68.5074 68.8432 68.6007C68.8694 68.694 68.8667 68.7931 68.8355 68.8848C68.8044 68.9766 68.7462 69.0568 68.6686 69.1149C68.5909 69.1729 68.4976 69.2061 68.4007 69.2101H39.4007C39.3039 69.2061 39.2105 69.1729 39.1329 69.1149C39.0553 69.0568 38.9971 68.9766 38.9659 68.8848C38.9348 68.7931 38.9321 68.694 38.9583 68.6007C38.9845 68.5074 39.0383 68.4242 39.1127 68.3621Z" fill="#352C6D"/>
<path fill-rule="evenodd" clip-rule="evenodd" d="M68.6884 43.8421L54.9284 53.8901C54.6254 54.1118 54.2597 54.2312 53.8844 54.2312C53.509 54.2312 53.1433 54.1118 52.8404 53.8901L39.1123 43.8421C39.0283 43.7828 38.9655 43.698 38.9333 43.6003C38.9011 43.5026 38.9011 43.3971 38.9334 43.2994C38.9657 43.2017 39.0285 43.117 39.1125 43.0577C39.1966 42.9984 39.2975 42.9677 39.4004 42.9701H68.4004C68.5032 42.9677 68.6041 42.9984 68.6882 43.0577C68.7722 43.117 68.835 43.2017 68.8673 43.2994C68.8996 43.3971 68.8996 43.5026 68.8674 43.6003C68.8352 43.698 68.7724 43.7828 68.6884 43.8421Z" fill="#352C6D"/>
<path fill-rule="evenodd" clip-rule="evenodd" d="M68.3043 66.354L55.2003 56.706C55.056 56.6446 54.933 56.542 54.8465 56.4112C54.76 56.2803 54.7139 56.1269 54.7139 55.97C54.7139 55.8132 54.76 55.6598 54.8465 55.5289C54.933 55.3981 55.056 55.2955 55.2003 55.234L68.3203 45.634C68.6803 45.37 69.4563 45.506 69.4563 45.834V66.154C69.4403 66.474 68.6643 66.618 68.3043 66.354Z" fill="#352C6D"/>
<path fill-rule="evenodd" clip-rule="evenodd" d="M39.3362 45.61L52.4642 55.258C52.6062 55.3206 52.7269 55.4231 52.8116 55.5531C52.8963 55.6831 52.9414 55.8349 52.9414 55.99C52.9414 56.1452 52.8963 56.297 52.8116 56.4269C52.7269 56.5569 52.6062 56.6594 52.4642 56.722L39.3362 66.322C38.9762 66.586 38.2002 66.442 38.2002 66.122V45.81C38.2002 45.482 38.9842 45.346 39.3362 45.61Z" fill="#352C6D"/>
</g>
<defs>
<clipPath id="clip0_7_4421">
<rect width="80" height="80" fill="white" transform="translate(0 0.409912)"/>
</clipPath>
</defs>
</svg>
