<svg width="80" height="81" viewBox="0 0 80 81" fill="none" xmlns="http://www.w3.org/2000/svg">
<g clip-path="url(#clip0_7_4442)">
<path d="M18.928 13.7618V32.6178C18.928 44.5218 27.648 52.8018 40.472 58.6338V6.70581L21.064 11.0818C20.4567 11.2198 19.9143 11.5603 19.5262 12.0473C19.138 12.5344 18.927 13.139 18.928 13.7618Z" fill="#6F66B0"/>
<path d="M59.8879 11.0818L40.4719 6.70581V58.6338C53.2719 52.8018 62.0239 44.5218 62.0239 32.6178V13.7618C62.0249 13.139 61.8139 12.5344 61.4258 12.0473C61.0376 11.5603 60.4953 11.2198 59.8879 11.0818Z" fill="#6F66B0"/>
<path d="M34.84 36.4578C34.6811 36.4592 34.5234 36.4288 34.3764 36.3683C34.2294 36.3079 34.096 36.2186 33.984 36.1058L28.856 30.9778C28.644 30.7504 28.5286 30.4495 28.5341 30.1386C28.5396 29.8277 28.6655 29.5311 28.8854 29.3112C29.1053 29.0914 29.4019 28.9654 29.7128 28.96C30.0236 28.9545 30.3245 29.0699 30.552 29.2818L34.84 33.5618L50.696 17.7058C50.9235 17.4939 51.2244 17.3785 51.5352 17.384C51.8461 17.3894 52.1427 17.5154 52.3626 17.7353C52.5825 17.9551 52.7084 18.2517 52.7139 18.5626C52.7194 18.8735 52.604 19.1744 52.392 19.4018L35.688 36.1058C35.5772 36.218 35.4451 36.3069 35.2995 36.3674C35.1539 36.4278 34.9977 36.4586 34.84 36.4578Z" fill="white"/>
<path d="M55.3518 52.8419V52.6179H57.3598C57.6905 52.6179 58.0138 52.5198 58.2887 52.3361C58.5637 52.1524 58.778 51.8913 58.9045 51.5857C59.0311 51.2802 59.0642 50.944 58.9997 50.6197C58.9352 50.2954 58.7759 49.9974 58.5421 49.7636C58.3083 49.5298 58.0103 49.3705 57.686 49.306C57.3617 49.2415 57.0255 49.2746 56.72 49.4012C56.4144 49.5277 56.1533 49.742 55.9696 50.017C55.7859 50.2919 55.6878 50.6152 55.6878 50.9459C55.6878 50.9459 55.6878 51.0179 55.6878 51.0579H55.0398L54.3118 46.8979C54.127 45.8334 53.5722 44.8684 52.7452 44.1731C51.9182 43.4779 50.8722 43.0971 49.7918 43.0979H30.2078C29.1274 43.0971 28.0814 43.4779 27.2544 44.1731C26.4274 44.8684 25.8726 45.8334 25.6878 46.8979L24.9598 51.0579H24.2958C24.2997 51.0207 24.2997 50.9831 24.2958 50.9459C24.2958 50.6152 24.1977 50.2919 24.014 50.017C23.8303 49.742 23.5692 49.5277 23.2637 49.4012C22.9581 49.2746 22.622 49.2415 22.2976 49.306C21.9733 49.3705 21.6754 49.5298 21.4415 49.7636C21.2077 49.9974 21.0484 50.2954 20.9839 50.6197C20.9194 50.944 20.9525 51.2802 21.0791 51.5857C21.2056 51.8913 21.4199 52.1524 21.6949 52.3361C21.9699 52.5198 22.2931 52.6179 22.6238 52.6179H24.6718L24.6318 52.8419C21.1678 53.8259 17.7278 57.0259 17.7278 60.3539V64.9699C17.7278 65.8483 18.0767 66.6907 18.6979 67.3118C19.319 67.9329 20.1614 68.2819 21.0398 68.2819H21.0878V71.3299C21.0878 71.8123 21.2789 72.275 21.6192 72.6168C21.9595 72.9587 22.4214 73.1518 22.9038 73.1539H25.8558C26.095 73.1539 26.3318 73.1067 26.5526 73.0149C26.7735 72.9231 26.974 72.7887 27.1427 72.6192C27.3115 72.4497 27.4451 72.2486 27.5359 72.0273C27.6267 71.806 27.6729 71.569 27.6718 71.3299V68.2819H52.3118V71.3299C52.3107 71.569 52.3569 71.806 52.4477 72.0273C52.5385 72.2486 52.6721 72.4497 52.8409 72.6192C53.0096 72.7887 53.2101 72.9231 53.431 73.0149C53.6518 73.1067 53.8887 73.1539 54.1278 73.1539H57.0798C57.5622 73.1518 58.0241 72.9587 58.3644 72.6168C58.7047 72.275 58.8958 71.8123 58.8958 71.3299V68.2819H58.9438C59.8222 68.2819 60.6646 67.9329 61.2857 67.3118C61.9069 66.6907 62.2558 65.8483 62.2558 64.9699V60.3539C62.2558 57.0259 58.8158 53.8259 55.3518 52.8419Z" fill="#FF617F"/>
<path d="M49.792 43.0979C50.8724 43.097 51.9184 43.4779 52.7453 44.1731C53.5723 44.8684 54.1272 45.8334 54.3119 46.8979L55.04 51.0579H55.6559C55.6559 51.0179 55.6559 50.9859 55.6559 50.9459C55.6559 50.6152 55.754 50.2919 55.9377 50.017C56.1215 49.742 56.3826 49.5277 56.6881 49.4012C56.9936 49.2746 57.3298 49.2415 57.6541 49.306C57.9785 49.3705 58.2764 49.5298 58.5102 49.7636C58.7441 49.9974 58.9033 50.2954 58.9678 50.6197C59.0323 50.944 58.9992 51.2802 58.8727 51.5857C58.7461 51.8912 58.5318 52.1524 58.2569 52.3361C57.9819 52.5198 57.6586 52.6179 57.328 52.6179H55.3119V52.8419C58.7759 53.8259 62.2159 57.0259 62.2159 60.3539V64.9699C62.2159 65.8483 61.867 66.6907 61.2459 67.3118C60.6248 67.9329 59.7823 68.2819 58.9039 68.2819H58.8559V71.3299C58.856 71.8123 58.6649 72.275 58.3245 72.6168C57.9842 72.9587 57.5223 73.1518 57.04 73.1539H54.128C53.8888 73.1539 53.652 73.1067 53.4311 73.0149C53.2103 72.9231 53.0097 72.7886 52.841 72.6192C52.6723 72.4497 52.5387 72.2485 52.4479 72.0273C52.3571 71.806 52.3109 71.569 52.3119 71.3299V68.2819H27.6879V71.3299C27.689 71.569 27.6428 71.806 27.552 72.0273C27.4612 72.2485 27.3276 72.4497 27.1589 72.6192C26.9902 72.7886 26.7896 72.9231 26.5688 73.0149C26.3479 73.1067 26.1111 73.1539 25.8719 73.1539H22.9199C22.4376 73.1518 21.9757 72.9587 21.6354 72.6168C21.295 72.275 21.1039 71.8123 21.1039 71.3299V68.2819H21.0559C20.1775 68.2819 19.3351 67.9329 18.714 67.3118C18.0929 66.6907 17.7439 65.8483 17.7439 64.9699V60.3539C17.7439 57.0259 21.1839 53.8259 24.6479 52.8419L24.6879 52.6179H22.6399C22.3093 52.6179 21.986 52.5198 21.711 52.3361C21.4361 52.1524 21.2218 51.8912 21.0952 51.5857C20.9687 51.2802 20.9356 50.944 21.0001 50.6197C21.0646 50.2954 21.2238 49.9974 21.4577 49.7636C21.6915 49.5298 21.9894 49.3705 22.3138 49.306C22.6381 49.2415 22.9743 49.2746 23.2798 49.4012C23.5853 49.5277 23.8464 49.742 24.0302 50.017C24.2139 50.2919 24.3119 50.6152 24.3119 50.9459C24.3158 50.9831 24.3158 51.0207 24.3119 51.0579H24.9759L25.7039 46.8979C25.8887 45.8334 26.4436 44.8684 27.2706 44.1731C28.0975 43.4779 29.1435 43.097 30.2239 43.0979H49.792ZM49.792 41.8979H30.2079C28.8438 41.8969 27.5232 42.378 26.4795 43.2563C25.4357 44.1347 24.736 45.3536 24.5039 46.6979L24.1839 48.5379C23.7232 48.243 23.187 48.0874 22.6399 48.0899C22.035 48.0926 21.4465 48.2862 20.9581 48.6432C20.4697 49.0001 20.1065 49.5022 19.9203 50.0777C19.7341 50.6532 19.7343 51.2728 19.921 51.8482C20.1077 52.4236 20.4713 52.9253 20.9599 53.2819C18.4799 54.9459 16.5439 57.5299 16.5439 60.3619V64.9699C16.5441 65.9665 16.8736 66.9352 17.4813 67.7252C18.089 68.5151 18.9407 69.0821 19.9039 69.3379V71.3299C19.9039 72.1305 20.2214 72.8985 20.7868 73.4654C21.3522 74.0322 22.1193 74.3518 22.9199 74.3539H25.8719C26.6726 74.3518 27.4397 74.0322 28.0051 73.4654C28.5704 72.8985 28.8879 72.1305 28.8879 71.3299V69.4819H51.1119V71.3299C51.1119 72.1305 51.4294 72.8985 51.9948 73.4654C52.5602 74.0322 53.3273 74.3518 54.128 74.3539H57.0799C57.8806 74.3518 58.6477 74.0322 59.2131 73.4654C59.7785 72.8985 60.096 72.1305 60.096 71.3299V69.3379C61.0592 69.0821 61.9109 68.5151 62.5186 67.7252C63.1263 66.9352 63.4558 65.9665 63.4559 64.9699V60.3539C63.4559 57.5139 61.5039 54.9219 59.0159 53.2579C59.5871 52.8101 59.9676 52.1626 60.0808 51.4457C60.194 50.7288 60.0316 49.9956 59.6262 49.3935C59.2207 48.7915 58.6024 48.3653 57.8956 48.2006C57.1887 48.0359 56.4457 48.145 55.8159 48.5059L55.5039 46.6899C55.2719 45.3456 54.5722 44.1267 53.5284 43.2483C52.4847 42.37 51.1641 41.8889 49.7999 41.8899L49.792 41.8979Z" fill="#F8FBFE"/>
<path d="M55.5761 54.1377H24.4241L25.6881 46.9377C25.8728 45.8732 26.4277 44.9082 27.2547 44.2129C28.0817 43.5177 29.1276 43.1368 30.208 43.1377H49.7921C50.8725 43.1368 51.9185 43.5177 52.7454 44.2129C53.5724 44.9082 54.1273 45.8732 54.3121 46.9377L55.5761 54.1377Z" fill="#FF617F"/>
<path d="M25.6001 53.2099L26.6721 47.0979C26.8159 46.2566 27.2533 45.4936 27.9065 44.9443C28.5598 44.3951 29.3866 44.0952 30.2401 44.0979H49.7921C50.6456 44.0952 51.4724 44.3951 52.1256 44.9443C52.7789 45.4936 53.2163 46.2566 53.3601 47.0979L54.4001 53.2099H25.6001Z" fill="#110A36"/>
<path d="M57.08 64.8818H54.128C53.125 64.8818 52.312 65.6949 52.312 66.6978V71.3378C52.312 72.3408 53.125 73.1538 54.128 73.1538H57.08C58.0829 73.1538 58.896 72.3408 58.896 71.3378V66.6978C58.896 65.6949 58.0829 64.8818 57.08 64.8818Z" fill="black"/>
<path d="M25.872 64.8818H22.92C21.9171 64.8818 21.104 65.6949 21.104 66.6978V71.3378C21.104 72.3408 21.9171 73.1538 22.92 73.1538H25.872C26.875 73.1538 27.688 72.3408 27.688 71.3378V66.6978C27.688 65.6949 26.875 64.8818 25.872 64.8818Z" fill="black"/>
<path d="M53.2719 52.5218L39.9999 52.2178L26.7279 52.5218C22.7279 52.5218 17.7439 56.3458 17.7439 60.3538V64.9698C17.7439 65.8482 18.0928 66.6906 18.714 67.3117C19.3351 67.9328 20.1775 68.2818 21.0559 68.2818H58.9439C59.8223 68.2818 60.6647 67.9328 61.2858 67.3117C61.907 66.6906 62.2559 65.8482 62.2559 64.9698V60.3538C62.2559 56.3458 57.2799 52.5218 53.2719 52.5218Z" fill="#FF617F"/>
<path d="M60.1601 57.2738C60.8574 58.1531 61.2554 59.2322 61.2961 60.3538V64.9698C61.2961 65.5935 61.0483 66.1918 60.6072 66.6329C60.1661 67.074 59.5679 67.3218 58.9441 67.3218H21.0561C20.4323 67.3218 19.8341 67.074 19.393 66.6329C18.9519 66.1918 18.7041 65.5935 18.7041 64.9698V60.3538C18.7341 59.4512 19.0108 58.5742 19.5041 57.8178C19.5041 57.8178 20.9601 56.4258 21.0161 58.4018C21.0721 60.3778 23.0241 62.7218 26.9041 61.0178C29.3519 59.8867 32.0339 59.3547 34.7281 59.4658C36.0081 59.4658 48.9121 59.4658 50.0321 59.5218C51.1521 59.5778 52.5921 61.0178 54.0881 61.4978C54.8828 61.7395 55.7356 61.7077 56.5101 61.4075C57.2845 61.1073 57.936 60.556 58.3601 59.8418C59.0801 58.3458 58.8401 56.3538 60.1601 57.2738Z" fill="#FE0B53"/>
<path d="M24.5601 60.6818C25.9651 60.6818 27.1041 59.5427 27.1041 58.1377C27.1041 56.7327 25.9651 55.5938 24.5601 55.5938C23.1551 55.5938 22.0161 56.7327 22.0161 58.1377C22.0161 59.5427 23.1551 60.6818 24.5601 60.6818Z" fill="white"/>
<path d="M55.44 60.6818C56.845 60.6818 57.984 59.5427 57.984 58.1377C57.984 56.7327 56.845 55.5938 55.44 55.5938C54.035 55.5938 52.896 56.7327 52.896 58.1377C52.896 59.5427 54.035 60.6818 55.44 60.6818Z" fill="white"/>
<path d="M24.2959 51.0579C24.2998 51.0207 24.2998 50.9831 24.2959 50.9459C24.2959 50.6152 24.1978 50.292 24.0141 50.017C23.8304 49.742 23.5693 49.5277 23.2638 49.4012C22.9582 49.2746 22.6221 49.2415 22.2977 49.306C21.9734 49.3706 21.6755 49.5298 21.4416 49.7636C21.2078 49.9975 21.0485 50.2954 20.984 50.6197C20.9195 50.9441 20.9526 51.2802 21.0792 51.5858C21.2057 51.8913 21.42 52.1524 21.695 52.3361C21.97 52.5199 22.2932 52.6179 22.6239 52.6179H25.1199V51.0179L24.2959 51.0579Z" fill="#FF617F"/>
<path d="M55.6559 51.0579C55.6559 51.0179 55.6559 50.9859 55.6559 50.9459C55.6559 50.6152 55.754 50.292 55.9377 50.017C56.1214 49.742 56.3826 49.5277 56.6881 49.4012C56.9936 49.2746 57.3298 49.2415 57.6541 49.306C57.9784 49.3706 58.2764 49.5298 58.5102 49.7636C58.744 49.9975 58.9033 50.2954 58.9678 50.6197C59.0323 50.9441 58.9992 51.2802 58.8726 51.5858C58.7461 51.8913 58.5318 52.1524 58.2568 52.3361C57.9819 52.5199 57.6586 52.6179 57.3279 52.6179H54.8159V51.0179L55.6559 51.0579Z" fill="#FF617F"/>
</g>
<defs>
<clipPath id="clip0_7_4442">
<rect width="80" height="80" fill="white" transform="translate(0 0.409912)"/>
</clipPath>
</defs>
</svg>
