<svg width="80" height="81" viewBox="0 0 80 81" fill="none" xmlns="http://www.w3.org/2000/svg">
<path d="M45.3188 25.5461H31.0468L23.1988 17.922C21.0948 15.658 20.0868 14.53 18.7348 14.05L18.5348 14.218C17.8948 14.762 17.2788 15.33 16.6948 15.93C14.028 18.6615 11.9814 21.9359 10.6948 25.53C10.1271 27.1047 9.71445 28.7312 9.46284 30.3861C9.25982 31.7286 9.1582 33.0844 9.15884 34.4421C9.14971 37.1993 9.56801 39.9411 10.3988 42.57C10.5028 42.882 10.6068 43.202 10.7188 43.5061H21.3908C21.3585 43.1952 21.3424 42.8827 21.3428 42.57C21.3428 39.99 22.3677 37.5157 24.1921 35.6913C26.0164 33.8669 28.4908 32.842 31.0708 32.842C33.6508 32.842 36.1252 33.8669 37.9495 35.6913C39.7739 37.5157 40.7988 39.99 40.7988 42.57C40.7988 42.89 40.7988 43.202 40.7508 43.5061H50.6308C50.8616 43.5072 51.0902 43.4627 51.3037 43.375C51.5172 43.2874 51.7113 43.1586 51.8748 42.9958C52.0384 42.833 52.1681 42.6394 52.2567 42.4264C52.3452 42.2133 52.3908 41.9849 52.3908 41.7541V32.626C52.3919 31.6967 52.2097 30.7762 51.8548 29.9172C51.4999 29.0583 50.9791 28.2778 50.3223 27.6202C49.6655 26.9627 48.8855 26.441 48.027 26.0851C47.1685 25.7292 46.2482 25.5461 45.3188 25.5461ZM47.0948 33.778C46.4619 33.778 45.8432 33.5905 45.317 33.2388C44.7908 32.8871 44.3806 32.3874 44.1384 31.8027C43.8962 31.218 43.8328 30.5746 43.9563 29.9537C44.0798 29.333 44.3845 28.7628 44.8321 28.3153C45.2796 27.8678 45.8498 27.563 46.4705 27.4395C47.0913 27.316 47.7347 27.3794 48.3194 27.6216C48.9041 27.8638 49.4039 28.274 49.7555 28.8003C50.1071 29.3265 50.2948 29.9451 50.2948 30.578C50.2948 31.4267 49.9577 32.2408 49.3576 32.8409C48.7574 33.441 47.9435 33.778 47.0948 33.778Z" fill="#FF617F"/>
<path d="M45.3187 25.546H19.7187L18.4947 14.218C17.8547 14.762 17.2387 15.33 16.6547 15.93L17.6147 25.53H10.6547C10.0869 27.1047 9.67427 28.7311 9.42266 30.386C9.21964 31.7285 9.11802 33.0843 9.11866 34.442C9.12246 37.2012 9.55426 39.9432 10.3987 42.57C10.5027 42.882 10.6067 43.202 10.7187 43.506H21.3907C21.3583 43.1951 21.3423 42.8826 21.3427 42.57C21.3427 39.99 22.3676 37.5156 24.1919 35.6913C26.0163 33.8669 28.4906 32.842 31.0707 32.842C33.6507 32.842 36.125 33.8669 37.9494 35.6913C39.7737 37.5156 40.7987 39.99 40.7987 42.57C40.7987 42.89 40.7987 43.202 40.7507 43.506H50.6307C50.8614 43.5071 51.0901 43.4625 51.3036 43.3749C51.5171 43.2874 51.7111 43.1585 51.8747 42.9957C52.0382 42.8329 52.168 42.6394 52.2565 42.4263C52.3451 42.2132 52.3907 41.9848 52.3907 41.754V32.626C52.3917 31.6966 52.2096 30.7761 51.8546 29.9172C51.4997 29.0583 50.9789 28.2777 50.3221 27.6202C49.6653 26.9626 48.8854 26.441 48.0268 26.0851C47.1683 25.7292 46.248 25.546 45.3187 25.546ZM47.0947 27.394C47.7276 27.394 48.3462 27.5817 48.8725 27.9333C49.3987 28.2849 49.8089 28.7847 50.0511 29.3694C50.2933 29.9541 50.3566 30.5976 50.2332 31.2183C50.1097 31.839 49.8049 32.4092 49.3574 32.8567C48.9099 33.3043 48.3397 33.609 47.7189 33.7325C47.0982 33.856 46.4548 33.7926 45.8701 33.5504C45.2853 33.3082 44.7856 32.8981 44.4339 32.3718C44.0823 31.8456 43.8946 31.2269 43.8946 30.594C43.8946 29.7453 44.2318 28.9314 44.8319 28.3313C45.432 27.7311 46.246 27.394 47.0947 27.394Z" fill="#FF617F"/>
<path d="M30.7999 50.81C35.4391 50.81 39.1999 47.0492 39.1999 42.41C39.1999 37.7708 35.4391 34.01 30.7999 34.01C26.1607 34.01 22.3999 37.7708 22.3999 42.41C22.3999 47.0492 26.1607 50.81 30.7999 50.81Z" fill="#667F8E"/>
<path d="M19.7427 25.5461H31.0467L23.1987 17.922C21.0947 15.658 20.0867 14.53 18.7347 14.05L18.5347 14.218L19.7427 25.5461Z" fill="#110A36"/>
<path d="M31.0708 32.842C28.4907 32.842 26.0164 33.8669 24.192 35.6913C22.3677 37.5156 21.3428 39.99 21.3428 42.57C21.3424 42.8827 21.3584 43.1951 21.3908 43.506C21.6302 45.907 22.7533 48.1334 24.5422 49.7528C26.331 51.3721 28.6578 52.2688 31.0708 52.2688C33.4837 52.2688 35.8105 51.3721 37.5993 49.7528C39.3882 48.1334 40.5114 45.907 40.7508 43.506C40.7508 43.202 40.7988 42.89 40.7988 42.57C40.7988 39.99 39.7739 37.5156 37.9495 35.6913C36.1251 33.8669 33.6508 32.842 31.0708 32.842ZM31.0708 49.114C29.4989 49.1148 27.9794 48.5492 26.7907 47.5206C25.6021 46.4921 24.8239 45.0697 24.5988 43.514C24.5476 43.2046 24.5209 42.8916 24.5188 42.578C24.4641 41.6859 24.5926 40.792 24.8963 39.9514C25.2 39.1108 25.6725 38.3412 26.2847 37.69C26.8969 37.0387 27.6359 36.5197 28.4562 36.1646C29.2765 35.8096 30.1607 35.6262 31.0545 35.6257C31.9483 35.6251 32.8328 35.8075 33.6535 36.1615C34.4742 36.5155 35.2138 37.0336 35.8268 37.6841C36.4398 38.3346 36.9132 39.1036 37.218 39.9439C37.5227 40.7841 37.6523 41.6778 37.5988 42.57C37.5966 42.8836 37.5699 43.1966 37.5188 43.506C37.296 45.0591 36.522 46.4802 35.3382 47.5098C34.1544 48.5394 32.6397 49.1088 31.0708 49.114Z" fill="black"/>
<path d="M10.3986 42.5701H20.4146C20.4909 39.7808 21.6525 37.1314 23.6523 35.1855C25.6521 33.2396 28.3323 32.1508 31.1226 32.1508C33.9129 32.1508 36.5931 33.2396 38.5929 35.1855C40.5927 37.1314 41.7544 39.7808 41.8306 42.5701H50.6866C50.8988 42.5701 51.1023 42.4858 51.2523 42.3358C51.4023 42.1858 51.4866 41.9823 51.4866 41.7701V32.6661C51.4866 32.2421 50.9426 31.6261 50.6386 32.7701C50.6386 32.7701 49.9266 34.8741 46.5906 34.6901C42.5906 34.4741 42.5906 32.5941 40.5586 30.6901C38.0546 28.3861 29.1106 26.6901 18.8466 30.4581C16.6146 31.2581 13.0066 30.8501 9.44658 30.4101C9.24357 31.7526 9.14195 33.1084 9.14258 34.4661C9.14111 37.216 9.56478 39.9496 10.3986 42.5701Z" fill="#FE0B53"/>
<path d="M47.0946 33.778C48.8575 33.778 50.2866 32.3489 50.2866 30.586C50.2866 28.8231 48.8575 27.394 47.0946 27.394C45.3317 27.394 43.9026 28.8231 43.9026 30.586C43.9026 32.3489 45.3317 33.778 47.0946 33.778Z" fill="white"/>
<path d="M17.5987 25.546L16.6387 15.946C13.9718 18.6775 11.9253 21.9519 10.6387 25.546H17.5987Z" fill="#110A36"/>
<path d="M53.6569 50.29L49.7141 54.2328L60.6432 65.1618L64.586 61.219L53.6569 50.29Z" fill="#110A36"/>
<path d="M54.6301 62.2269L61.8143 55.0427L72.8226 66.051C73.7753 67.0037 74.3105 68.2958 74.3105 69.6431C74.3105 70.9904 73.7753 72.2825 72.8226 73.2352C71.8699 74.1879 70.5778 74.7231 69.2305 74.7231C67.8832 74.7231 66.591 74.1879 65.6384 73.2352L54.6301 62.2269Z" fill="#6F66B0"/>
<path d="M61.8226 55.0501L72.7986 66.0501C73.7522 67.0055 74.2878 68.3003 74.2878 69.6501C74.2878 71 73.7522 72.2947 72.7986 73.2501C72.3266 73.7242 71.7656 74.1004 71.1478 74.3571C70.53 74.6138 69.8676 74.7459 69.1986 74.7459C68.5296 74.7459 67.8672 74.6138 67.2494 74.3571C66.6316 74.1004 66.0706 73.7242 65.5986 73.2501L54.6386 62.2341L61.8386 55.0341L61.8226 55.0501ZM61.8386 53.3381L60.9906 54.1861L53.7906 61.3861L52.9426 62.2341L53.7906 63.0821L64.7986 74.0821C65.9763 75.2595 67.5734 75.9209 69.2386 75.9209C70.9039 75.9209 72.5009 75.2595 73.6786 74.0821C74.854 72.9034 75.5141 71.3067 75.5141 69.6421C75.5141 67.9775 74.854 66.3808 73.6786 65.2021L62.6706 54.2021L61.8226 53.3541L61.8386 53.3381Z" fill="#F8FBFE"/>
<path d="M13.8546 14.2659C9.95289 18.1671 7.29565 23.1377 6.21894 28.5491C5.14224 33.9605 5.69443 39.5696 7.80569 44.6672C9.91696 49.7648 13.4925 54.1218 18.08 57.1872C22.6676 60.2526 28.0611 61.8888 33.5786 61.8888C39.0961 61.8888 44.4897 60.2526 49.0772 57.1872C53.6648 54.1218 57.2403 49.7648 59.3516 44.6672C61.4628 39.5696 62.015 33.9605 60.9383 28.5491C59.8616 23.1377 57.2044 18.1671 53.3026 14.2659C50.7128 11.675 47.638 9.61975 44.2537 8.2175C40.8694 6.81525 37.2419 6.09351 33.5786 6.09351C29.9153 6.09351 26.2879 6.81525 22.9036 8.2175C19.5193 9.61975 16.4444 11.675 13.8546 14.2659ZM49.7426 50.3139C46.5218 53.5356 42.4179 55.7297 37.95 56.6189C33.482 57.5081 28.8507 57.0523 24.6419 55.3093C20.433 53.5662 16.8355 50.6141 14.3045 46.8264C11.7734 43.0387 10.4225 38.5855 10.4225 34.0299C10.4225 29.4744 11.7734 25.0211 14.3045 21.2334C16.8355 17.4457 20.433 14.4936 24.6419 12.7505C28.8507 11.0075 33.482 10.5517 37.95 11.4409C42.4179 12.3301 46.5218 14.5242 49.7426 17.7459C51.8817 19.884 53.5785 22.4226 54.7362 25.2167C55.8939 28.0107 56.4898 31.0055 56.4898 34.0299C56.4898 37.0543 55.8939 40.0491 54.7362 42.8431C53.5785 45.6372 51.8817 48.1758 49.7426 50.3139Z" fill="#6F66B0"/>
<path d="M33.5986 6.09802C40.0517 6.10289 46.3035 8.3449 51.2891 12.4421C56.2747 16.5393 59.6856 22.2383 60.9407 28.5682C62.1959 34.898 61.2176 41.4673 58.1727 47.1569C55.1277 52.8465 50.2044 57.3044 44.2414 59.7713C38.2784 62.2381 31.6446 62.5614 25.47 60.6859C19.2954 58.8104 13.962 54.8522 10.3784 49.4856C6.79471 44.119 5.18249 37.6759 5.81634 31.254C6.45019 24.832 9.2909 18.8285 13.8546 14.266C16.4442 11.6696 19.5219 9.61123 22.9105 8.20939C26.2991 6.80756 29.9315 6.08999 33.5986 6.09802ZM33.4706 57.058C38.7991 57.0571 43.9625 55.2087 48.0809 51.8276C52.1994 48.4466 55.0181 43.7421 56.0569 38.5158C57.0956 33.2895 56.2901 27.8648 53.7775 23.1658C51.265 18.4668 47.2009 14.7844 42.2777 12.746C37.3545 10.7075 31.8768 10.4392 26.7779 11.9867C21.679 13.5341 17.2745 16.8017 14.3147 21.2326C11.3549 25.6635 10.023 30.9836 10.5459 36.2864C11.0689 41.5892 13.4143 46.5466 17.1826 50.314C19.3193 52.4558 21.8583 54.1542 24.6535 55.3116C27.4488 56.4689 30.4452 57.0624 33.4706 57.058ZM33.5986 4.89802C27.8436 4.89563 22.2172 6.59994 17.4309 9.79538C12.6446 12.9908 8.91342 17.5339 6.70922 22.85C4.50502 28.1661 3.92682 34.0165 5.04774 39.6612C6.16866 45.3059 8.93836 50.4915 13.0066 54.562C18.4882 59.8936 25.8483 62.853 33.495 62.8C41.1417 62.7469 48.4601 59.6858 53.8672 54.2786C59.2743 48.8715 62.3355 41.5531 62.3885 33.9064C62.4415 26.2598 59.4822 18.8996 54.1506 13.418C51.4578 10.7103 48.255 8.56318 44.7274 7.10078C41.1998 5.63837 37.4173 4.88969 33.5986 4.89802ZM33.4706 55.858C28.422 55.858 23.5295 54.1075 19.6267 50.905C15.7239 47.7024 13.0522 43.2457 12.0666 38.2942C11.0811 33.3428 11.8427 28.2027 14.2218 23.7498C16.6009 19.2969 20.4502 15.8065 25.114 13.8734C29.7778 11.9402 34.9677 11.6837 39.7993 13.1477C44.631 14.6117 48.8057 17.7056 51.6121 21.9023C54.4186 26.099 55.6832 31.1389 55.1906 36.1634C54.698 41.188 52.4786 45.8863 48.9106 49.458C46.8885 51.4934 44.4825 53.1071 41.8321 54.2057C39.1817 55.3043 36.3396 55.8659 33.4706 55.858Z" fill="#F8FBFE"/>
<path d="M7.04669 41.266C7.17077 42.0262 7.41091 42.7628 7.75869 43.45C8.75069 45.458 10.8867 50.37 13.5747 52.802C16.8547 55.786 21.4227 60.074 30.0547 61.282C35.7134 61.9808 41.45 60.9223 46.4867 58.25C47.4787 57.722 53.4467 54.058 55.0707 50.818C56.6947 47.578 54.4387 51.394 51.5587 53.066C49.4947 54.266 46.4787 58.258 38.9427 59.61C33.587 60.5191 28.0812 59.7273 23.1987 57.346C19.0821 55.5324 15.4386 52.795 12.5507 49.346C6.84669 42.594 7.59069 40.306 7.17469 40.354C6.96669 40.41 6.98269 40.802 7.04669 41.266Z" fill="#352C6D"/>
<path d="M72.4386 68.138C72.3315 68.7876 71.9897 69.3754 71.478 69.7898C70.9663 70.2041 70.3203 70.4163 69.6626 70.386C67.2066 70.386 63.2626 67.986 62.0786 66.57C60.9903 65.1409 59.8204 63.776 58.5746 62.482C58.1106 62.13 56.5346 61.338 56.3266 61.522C56.1186 61.706 55.1186 62.01 55.6946 62.482C56.2706 62.954 60.9106 67.826 61.2306 68.186C61.5506 68.546 66.8306 73.73 68.4306 74.194C70.0306 74.658 72.4306 73.106 73.1026 71.906C73.7746 70.706 74.5666 68.706 73.7346 68.082C72.9026 67.458 72.4386 68.138 72.4386 68.138Z" fill="#352C6D"/>
</svg>
