<svg width="80" height="81" viewBox="0 0 80 81" fill="none" xmlns="http://www.w3.org/2000/svg">
<g clip-path="url(#clip0_7_4464)">
<path d="M74.376 36.562H26.536C25.6877 36.562 25 37.2497 25 38.098V65.794C25 66.6423 25.6877 67.33 26.536 67.33H74.376C75.2243 67.33 75.912 66.6423 75.912 65.794V38.098C75.912 37.2497 75.2243 36.562 74.376 36.562Z" fill="#352C6D"/>
<path d="M75.912 41.6821H25V47.5861H75.912V41.6821Z" fill="#6F66B0"/>
<path d="M48.4959 52.634H28.1359C27.9415 52.634 27.7839 52.7916 27.7839 52.986V54.21C27.7839 54.4044 27.9415 54.562 28.1359 54.562H48.4959C48.6903 54.562 48.8479 54.4044 48.8479 54.21V52.986C48.8479 52.7916 48.6903 52.634 48.4959 52.634Z" fill="#6F66B0"/>
<path d="M39.0879 55.738H28.1359C27.9415 55.738 27.7839 55.8956 27.7839 56.09V57.314C27.7839 57.5084 27.9415 57.666 28.1359 57.666H39.0879C39.2823 57.666 39.4399 57.5084 39.4399 57.314V56.09C39.4399 55.8956 39.2823 55.738 39.0879 55.738Z" fill="#6F66B0"/>
<path d="M64.3279 59.034C66.2852 59.034 67.8719 57.4473 67.8719 55.49C67.8719 53.5327 66.2852 51.946 64.3279 51.946C62.3706 51.946 60.7839 53.5327 60.7839 55.49C60.7839 57.4473 62.3706 59.034 64.3279 59.034Z" fill="#FE0B53"/>
<path d="M68.68 59.034C70.6373 59.034 72.224 57.4473 72.224 55.49C72.224 53.5327 70.6373 51.946 68.68 51.946C66.7227 51.946 65.136 53.5327 65.136 55.49C65.136 57.4473 66.7227 59.034 68.68 59.034Z" fill="#FF617F"/>
<path d="M50.4526 13.546L5.09806 28.7655C4.29382 29.0354 3.86063 29.9061 4.13051 30.7103L12.9415 56.9674C13.2114 57.7717 14.0822 58.2049 14.8864 57.935L60.2409 42.7155C61.0452 42.4457 61.4784 41.5749 61.2085 40.7707L52.3975 14.5136C52.1276 13.7094 51.2569 13.2762 50.4526 13.546Z" fill="#FF617F"/>
<path d="M50.9521 13.458C51.2729 13.4586 51.5854 13.5601 51.8453 13.7482C52.1052 13.9363 52.2993 14.2014 52.4001 14.506L61.2001 40.77C61.3294 41.1562 61.3001 41.5779 61.1186 41.9424C60.937 42.307 60.6182 42.5845 60.2321 42.714L14.8721 57.914C14.721 57.9714 14.5616 58.0039 14.4001 58.01C14.08 58.0112 13.7676 57.9113 13.5076 57.7246C13.2476 57.5378 13.0532 57.2738 12.9521 56.97L4.15204 30.706C4.08691 30.5149 4.06032 30.3127 4.0738 30.1112C4.08728 29.9097 4.14057 29.7129 4.23058 29.5321C4.3206 29.3513 4.44555 29.1902 4.59822 29.058C4.75089 28.9258 4.92825 28.8252 5.12004 28.762L50.4801 13.562C50.6381 13.5121 50.8024 13.4851 50.9681 13.482L50.9521 13.458ZM50.9681 12.282C50.667 12.2748 50.3669 12.3181 50.0801 12.41L4.72004 27.61C4.38005 27.7238 4.06583 27.9035 3.79534 28.1388C3.52485 28.3742 3.3034 28.6605 3.14365 28.9815C2.98391 29.3025 2.889 29.6518 2.86436 30.0095C2.83972 30.3671 2.88582 30.7262 3.00004 31.066L11.8001 57.33C11.9793 57.8779 12.3274 58.3549 12.7945 58.6927C13.2616 59.0304 13.8237 59.2115 14.4001 59.21C14.6967 59.2103 14.9913 59.1617 15.2721 59.066L60.6321 43.866C61.3174 43.6344 61.8832 43.1407 62.2055 42.4931C62.5278 41.8454 62.5805 41.0964 62.3521 40.41L53.5521 14.146C53.3695 13.6031 53.0212 13.1312 52.5562 12.7967C52.0911 12.4623 51.5329 12.2823 50.9601 12.282H50.9681Z" fill="#F8FBFE"/>
<path d="M17.0884 31.7907L10.3383 34.0558C9.82735 34.2273 9.5521 34.7806 9.72358 35.2916L11.0393 39.2127C11.2108 39.7237 11.7641 39.999 12.2751 39.8275L19.0252 37.5624C19.5362 37.3909 19.8115 36.8376 19.64 36.3266L18.3242 32.4055C18.1527 31.8945 17.5995 31.6192 17.0884 31.7907Z" fill="#352C6D"/>
<path d="M21.4438 40.2288L12.7369 43.1506C12.5526 43.2124 12.4534 43.4119 12.5152 43.5963L13.1362 45.4468C13.1981 45.6311 13.3976 45.7304 13.5819 45.6686L22.2888 42.7468C22.4731 42.685 22.5723 42.4855 22.5105 42.3011L21.8895 40.4506C21.8277 40.2663 21.6281 40.167 21.4438 40.2288Z" fill="#FE0B53"/>
<path d="M31.9794 36.7008L23.2726 39.6225C23.0883 39.6843 22.989 39.8839 23.0508 40.0682L23.6718 41.9188C23.7337 42.1031 23.9332 42.2023 24.1175 42.1405L32.8244 39.2188C33.0087 39.1569 33.1079 38.9574 33.0461 38.7731L32.4251 36.9225C32.3633 36.7382 32.1637 36.6389 31.9794 36.7008Z" fill="#FE0B53"/>
<path d="M42.5226 33.1619L33.8158 36.0837C33.6315 36.1455 33.5322 36.3451 33.5941 36.5294L34.2151 38.3799C34.2769 38.5642 34.4764 38.6635 34.6607 38.6017L43.3676 35.6799C43.5519 35.6181 43.6512 35.4186 43.5893 35.2343L42.9683 33.3837C42.9065 33.1994 42.707 33.1001 42.5226 33.1619Z" fill="#FE0B53"/>
<path d="M53.0583 29.6258L44.3514 32.5475C44.1671 32.6094 44.0679 32.8089 44.1297 32.9932L44.7507 34.8438C44.8125 35.0281 45.0121 35.1274 45.1964 35.0655L53.9033 32.1438C54.0876 32.082 54.1868 31.8824 54.125 31.6981L53.504 29.8475C53.4421 29.6632 53.2426 29.564 53.0583 29.6258Z" fill="#FE0B53"/>
<path d="M20.5232 46.3035L14.3343 48.3803C14.15 48.4421 14.0507 48.6417 14.1126 48.826L14.4409 49.8044C14.5028 49.9887 14.7023 50.0879 14.8866 50.0261L21.0754 47.9493C21.2598 47.8875 21.359 47.6879 21.2972 47.5036L20.9689 46.5253C20.907 46.341 20.7075 46.2417 20.5232 46.3035Z" fill="#FE0B53"/>
<path d="M38.9339 44.7039L15.7105 52.4969C15.5262 52.5587 15.427 52.7583 15.4888 52.9426L15.8171 53.921C15.879 54.1053 16.0785 54.2045 16.2628 54.1427L39.4862 46.3497C39.6705 46.2879 39.7697 46.0883 39.7079 45.904L39.3796 44.9257C39.3177 44.7414 39.1182 44.6421 38.9339 44.7039Z" fill="#FE0B53"/>
<path d="M30.4526 42.9739L24.2637 45.0507C24.0794 45.1125 23.9802 45.3121 24.042 45.4964L24.3703 46.4748C24.4322 46.6591 24.6317 46.7584 24.816 46.6965L31.0048 44.6197C31.1892 44.5579 31.2884 44.3584 31.2266 44.1741L30.8983 43.1957C30.8364 43.0114 30.6369 42.9121 30.4526 42.9739Z" fill="#FE0B53"/>
</g>
<defs>
<clipPath id="clip0_7_4464">
<rect width="80" height="80" fill="white" transform="translate(0 0.409912)"/>
</clipPath>
</defs>
</svg>
