<svg width="18" height="17" viewBox="0 0 18 17" fill="none" xmlns="http://www.w3.org/2000/svg">
<path fill-rule="evenodd" clip-rule="evenodd" d="M9.0052 2.22998C8.9618 2.18939 8.9181 2.14833 8.874 2.10694C7.9524 1.24193 6.87437 0.22998 4.99999 0.22998C1.07153 0.22998 -1.81854 5.22998 1.3471 9.22998C4.51275 13.23 8.0026 15.73 9.0052 16.23C9.9967 15.73 13.4866 13.23 16.6529 9.22998C19.8191 5.22998 16.9276 0.22998 13 0.22998C11.1003 0.22998 10.0115 1.26947 9.0975 2.14194C9.0666 2.17149 9.0358 2.20086 9.0052 2.22998ZM9.0029 14.8361C10.2906 13.9914 13.1013 11.7834 15.712 8.48518C18.286 5.23335 15.8754 1.42998 13 1.42998C11.5851 1.42998 10.8103 2.16793 9.8601 3.07295L10.5436 2.44217L10.8966 2.15647L11.2619 1.90839L11.5 1.77595L11.7029 1.68164L12 1.57323L12.2322 1.51151L12.5948 1.45145L13 1.42998L13.3114 1.44484L13.6225 1.48947L14 1.58448L14.3609 1.71923L14.7354 1.90839L14.9732 2.05756L15.2676 2.278L15.594 2.57777L15.7931 2.79621L15.9823 3.03613L16.1585 3.29645L16.3456 3.62794L16.4528 3.85561L16.5455 4.08683L16.6326 4.35001L16.7048 4.6294L16.7642 4.95778L16.7969 5.28173L16.804 5.62108L16.7797 6L16.7384 6.28769L16.6444 6.69883L16.5489 7L16.4239 7.31465L16.2286 7.71054L16 8.08844L15.712 8.48518L15.0471 9.29763L14.7091 9.69082L14.3531 10.092L13.9361 10.5459L13.2494 11.2587L12.5435 11.9499L11.8431 12.5971L11.2307 13.133L10.559 13.6891L9.84175 14.2449L9.44354 14.5347L9.0029 14.8361L8.28305 14.3349L7.60206 13.8159L6.94374 13.2798L6.26413 12.6925L5.5 12L4.96731 11.4753L4.5 11L3.72585 10.1795L3.06222 9.42631L2.40627 8.6337L2.08194 8.20866L1.89552 7.9243L1.71678 7.60821L1.55353 7.26221L1.41704 6.9002L1.34768 6.66974L1.25828 6.26809L1.217 5.96813L1.19718 5.66779L1.20018 5.33617L1.2301 5L1.27668 4.71705L1.37978 4.30854L1.52853 3.89894L1.72191 3.5L1.96689 3.10685L2.2119 2.79014L2.43403 2.54915L2.63371 2.36172L2.81201 2.21397L2.97195 2.09531L3.1512 1.9764L3.42374 1.82143L3.67195 1.70504L3.84402 1.63722L4.05773 1.56694L4.23136 1.52082L4.42943 1.47991L4.75446 1.43921L4.99999 1.42998L5.15222 1.43288L5.3079 1.44216L5.5 1.4631L5.64936 1.48718L5.80811 1.52082L5.97913 1.56694L6.1188 1.61263L6.26413 1.66822L6.42192 1.73818L6.54203 1.79829L6.65723 1.86158L6.78911 1.94076L6.92443 2.02933L7.08295 2.14212L7.25943 2.27824L7.52405 2.5L7.86104 2.80384L8.186 3.10685C8.1607 3.08316 8.1355 3.05958 8.1104 3.03613C7.1543 2.14205 6.39288 1.42998 4.99999 1.42998C2.12411 1.42998 -0.285746 5.23308 2.28808 8.48528C4.90081 11.7867 7.7127 13.9939 9.0029 14.8361Z" fill="#332E69"/>
</svg>
