<svg width="19" height="17" viewBox="0 0 19 17" fill="none" xmlns="http://www.w3.org/2000/svg">
<path fill-rule="evenodd" clip-rule="evenodd" d="M9.5052 2.91003C9.4618 2.86944 9.4181 2.82838 9.374 2.78699C8.4524 1.92198 7.37437 0.910034 5.49999 0.910034C1.57153 0.910034 -1.31854 5.91003 1.8471 9.91003C5.01275 13.91 8.5026 16.41 9.5052 16.91C10.4967 16.41 13.9866 13.91 17.1529 9.91003C20.3191 5.91003 17.4276 0.910034 13.5 0.910034C11.6003 0.910034 10.5115 1.94952 9.5975 2.82199C9.5666 2.85154 9.5358 2.88091 9.5052 2.91003ZM9.5029 15.5161C10.7906 14.6714 13.6013 12.4634 16.212 9.16523C18.786 5.9134 16.3754 2.11003 13.5 2.11003C12.0851 2.11003 11.3103 2.84798 10.3601 3.753L9.5131 4.55961L8.686 3.7869C8.6607 3.76321 8.6355 3.73963 8.6104 3.71618C7.6543 2.8221 6.89288 2.11003 5.49999 2.11003C2.62411 2.11003 0.214254 5.91313 2.78808 9.16533C5.40081 12.4667 8.2127 14.6739 9.5029 15.5161Z" fill="#332E69"/>
</svg>
