<svg width="24" height="24" viewBox="0 0 24 24" fill="none" xmlns="http://www.w3.org/2000/svg">
<g clip-path="url(#clip0_6_18)">
<path d="M13.6 13H10.4V14.2H13.6V13ZM6.39999 13H8.59999V14.2H6.39999V13ZM17.6 13H15.4V14.2H17.6V13Z" fill="#150D2C" fill-opacity="0.88"/>
<path fill-rule="evenodd" clip-rule="evenodd" d="M8.391 4.39999C7.82068 4.40008 7.26622 4.58769 6.81302 4.93392C6.35982 5.28014 6.03304 5.76577 5.883 6.31599L5.14 9.03899L3.834 8.16799L3.168 9.16599L4.691 10.182L3.913 11.479C3.57752 12.0381 3.40021 12.6779 3.4 13.33V17.5C3.4 17.8414 3.46725 18.1795 3.59791 18.495C3.72857 18.8104 3.92009 19.097 4.16152 19.3385C4.40295 19.5799 4.68958 19.7714 5.00502 19.9021C5.32047 20.0327 5.65856 20.1 6 20.1C6.34144 20.1 6.67953 20.0327 6.99498 19.9021C7.31042 19.7714 7.59704 19.5799 7.83848 19.3385C8.07991 19.097 8.27142 18.8104 8.40209 18.495C8.53275 18.1795 8.6 17.8414 8.6 17.5V16.6H15.4V17.5C15.4 18.1896 15.6739 18.8509 16.1615 19.3385C16.6491 19.8261 17.3104 20.1 18 20.1C18.6896 20.1 19.3509 19.8261 19.8385 19.3385C20.3261 18.8509 20.6 18.1896 20.6 17.5V13.331C20.6 12.6786 20.4227 12.0384 20.087 11.479L19.309 10.182L20.832 9.16599L20.166 8.16799L18.824 9.06299L17.884 6.19099C17.7135 5.67028 17.3829 5.21674 16.9393 4.89511C16.4957 4.57347 15.9619 4.40019 15.414 4.39999H8.391ZM19.4 15.4V13.331C19.4 12.8959 19.2818 12.4691 19.058 12.096L18.149 10.581C18.1 10.5936 18.0496 10.6 17.999 10.6H6C5.95007 10.5998 5.90036 10.5934 5.852 10.581L4.942 12.096C4.71852 12.4692 4.60065 12.896 4.601 13.331V15.4H19.4ZM16.744 6.56499L17.672 9.39999H6.285L7.04 6.63199C7.12076 6.33557 7.29677 6.07395 7.54092 5.88745C7.78506 5.70095 8.08377 5.59994 8.391 5.59999H15.414C15.7091 5.60014 15.9966 5.69354 16.2355 5.86684C16.4743 6.04015 16.6523 6.2845 16.744 6.56499ZM4.6 16.6V17.5C4.6 17.8713 4.7475 18.2274 5.01005 18.4899C5.2726 18.7525 5.6287 18.9 6 18.9C6.3713 18.9 6.7274 18.7525 6.98995 18.4899C7.2525 18.2274 7.4 17.8713 7.4 17.5V16.6H4.6ZM19.4 16.6V17.5C19.4 17.8713 19.2525 18.2274 18.9899 18.4899C18.7274 18.7525 18.3713 18.9 18 18.9C17.6287 18.9 17.2726 18.7525 17.01 18.4899C16.7475 18.2274 16.6 17.8713 16.6 17.5V16.6H19.4Z" fill="#150D2C" fill-opacity="0.88"/>
</g>
<defs>
<clipPath id="clip0_6_18">
<rect width="24" height="24" fill="white"/>
</clipPath>
</defs>
</svg>
