<svg width="24" height="24" viewBox="0 0 24 24" fill="none" xmlns="http://www.w3.org/2000/svg">
<g clip-path="url(#clip0_6_39)">
<path d="M12.6 5.89999V7.40199C13.2718 7.42785 13.9074 7.71288 14.3735 8.19727C14.8396 8.68166 15.1 9.32776 15.1 9.99999H13.9C13.9 9.81614 13.8638 9.63409 13.7934 9.46424C13.7231 9.29438 13.62 9.14005 13.49 9.01004C13.36 8.88004 13.2056 8.77692 13.0358 8.70656C12.8659 8.63621 12.6839 8.59999 12.5 8.59999H11.423C11.0949 8.60024 10.7786 8.72239 10.5355 8.94272C10.2924 9.16306 10.1399 9.46586 10.1075 9.79235C10.0751 10.1188 10.1651 10.4457 10.3602 10.7095C10.5552 10.9733 10.8414 11.1553 11.163 11.22L13.072 11.602C13.6852 11.7233 14.2315 12.0678 14.6052 12.5689C14.9788 13.07 15.1531 13.692 15.0943 14.3143C15.0356 14.9366 14.7479 15.5149 14.2871 15.9372C13.8262 16.3595 13.2251 16.5957 12.6 16.6V18.1H11.4V16.598C10.7283 16.5721 10.0927 16.2871 9.62654 15.8027C9.16042 15.3183 8.90003 14.6722 8.90001 14H10.1C10.1 14.3713 10.2475 14.7274 10.5101 14.9899C10.7726 15.2525 11.1287 15.4 11.5 15.4H12.577C12.9051 15.3997 13.2214 15.2776 13.4645 15.0573C13.7076 14.8369 13.8602 14.5341 13.8925 14.2076C13.9249 13.8812 13.8349 13.5543 13.6398 13.2905C13.4448 13.0266 13.1587 12.8447 12.837 12.78L10.928 12.398C10.3148 12.2767 9.76849 11.9322 9.39486 11.4311C9.02123 10.93 8.84691 10.308 8.90568 9.68572C8.96445 9.06343 9.25212 8.48511 9.71295 8.06282C10.1738 7.64053 10.775 7.40433 11.4 7.39999V5.89999H12.6Z" fill="#150D2C" fill-opacity="0.88"/>
<path fill-rule="evenodd" clip-rule="evenodd" d="M21 12C21 13.1819 20.7672 14.3522 20.3149 15.4442C19.8626 16.5361 19.1997 17.5282 18.364 18.364C17.5282 19.1997 16.5361 19.8626 15.4442 20.3149C14.3522 20.7672 13.1819 21 12 21C10.8181 21 9.64778 20.7672 8.55585 20.3149C7.46392 19.8626 6.47177 19.1997 5.63604 18.364C4.80031 17.5282 4.13738 16.5361 3.68508 15.4442C3.23279 14.3522 3 13.1819 3 12C3 9.61305 3.94821 7.32387 5.63604 5.63604C7.32387 3.94821 9.61305 3 12 3C14.3869 3 16.6761 3.94821 18.364 5.63604C20.0518 7.32387 21 9.61305 21 12ZM19.8 12C19.8 14.0687 18.9782 16.0526 17.5154 17.5154C16.0526 18.9782 14.0687 19.8 12 19.8C9.93131 19.8 7.94735 18.9782 6.48457 17.5154C5.02178 16.0526 4.2 14.0687 4.2 12C4.2 9.93131 5.02178 7.94735 6.48457 6.48457C7.94735 5.02178 9.93131 4.2 12 4.2C14.0687 4.2 16.0526 5.02178 17.5154 6.48457C18.9782 7.94735 19.8 9.93131 19.8 12Z" fill="#150D2C" fill-opacity="0.88"/>
</g>
<defs>
<clipPath id="clip0_6_39">
<rect width="24" height="24" fill="white"/>
</clipPath>
</defs>
</svg>
