<svg width="24" height="24" viewBox="0 0 24 24" fill="none" xmlns="http://www.w3.org/2000/svg">
<g clip-path="url(#clip0_6_61)">
<path d="M11.4 4.22298C9.74938 4.35042 8.18212 4.99974 6.925 6.07698L8.348 7.49998L7.5 8.34898L6.077 6.92498C4.99976 8.1821 4.35044 9.74936 4.223 11.4H6.6V12.6H4.223C4.35037 14.2506 4.9997 15.8179 6.077 17.075L7.5 15.652L8.348 16.5L6.06 18.788L5.636 18.364C4.37734 17.1053 3.52019 15.5017 3.17293 13.7558C2.82567 12.01 3.00391 10.2004 3.6851 8.55588C4.36629 6.91136 5.51984 5.50575 6.99988 4.51683C8.47992 3.5279 10.22 3.00006 12 3.00006C13.78 3.00006 15.5201 3.5279 17.0001 4.51683C18.4802 5.50575 19.6337 6.91136 20.3149 8.55588C20.9961 10.2004 21.1743 12.01 20.8271 13.7558C20.4798 15.5017 19.6227 17.1053 18.364 18.364L17.94 18.788L15.65 16.5L16.499 15.652L17.922 17.075C18.9992 15.8179 19.6486 14.2506 19.776 12.6H17.4V11.4H19.777C19.6338 9.54412 18.8317 7.80064 17.5155 6.48445C16.1993 5.16826 14.4559 4.36614 12.6 4.22298V6.59998H11.4V4.22298Z" fill="#150D2C" fill-opacity="0.88"/>
<path fill-rule="evenodd" clip-rule="evenodd" d="M15 12C15 12.6682 14.7769 13.3172 14.3661 13.8441C13.9554 14.3711 13.3805 14.7459 12.7325 14.909C12.0846 15.0722 11.4008 15.0144 10.7894 14.7448C10.1781 14.4751 9.67426 14.0092 9.35781 13.4207C9.04136 12.8322 8.93042 12.155 9.04256 11.4963C9.15471 10.8376 9.48353 10.2353 9.97689 9.78468C10.4702 9.3341 11.0999 9.06111 11.766 9.009C12.4321 8.95688 13.0966 9.12863 13.654 9.497L15.5 7.651L16.349 8.5L14.503 10.345C14.817 10.82 15 11.388 15 12ZM13.8 12C13.8 12.2364 13.7534 12.4704 13.663 12.6888C13.5725 12.9072 13.4399 13.1056 13.2728 13.2728C13.1057 13.4399 12.9072 13.5725 12.6888 13.663C12.4704 13.7534 12.2364 13.8 12 13.8C11.7636 13.8 11.5296 13.7534 11.3112 13.663C11.0928 13.5725 10.8944 13.4399 10.7272 13.2728C10.5601 13.1056 10.4275 12.9072 10.337 12.6888C10.2466 12.4704 10.2 12.2364 10.2 12C10.2 11.5226 10.3896 11.0648 10.7272 10.7272C11.0648 10.3896 11.5226 10.2 12 10.2C12.4774 10.2 12.9352 10.3896 13.2728 10.7272C13.6104 11.0648 13.8 11.5226 13.8 12Z" fill="#150D2C" fill-opacity="0.88"/>
<path d="M14.6 18.4H9.39999V19.6H14.6V18.4Z" fill="#150D2C" fill-opacity="0.88"/>
</g>
<defs>
<clipPath id="clip0_6_61">
<rect width="24" height="24" fill="white"/>
</clipPath>
</defs>
</svg>
