<svg width="24" height="24" viewBox="0 0 24 24" fill="none" xmlns="http://www.w3.org/2000/svg">
<path fill-rule="evenodd" clip-rule="evenodd" d="M17 19C16.3085 19 15.6381 18.7611 15.1024 18.3238C14.5667 17.8865 14.1985 17.2776 14.06 16.6H9.93999C9.79851 17.2915 9.41785 17.9109 8.86492 18.3495C8.31198 18.7881 7.62216 19.0178 6.91666 18.9983C6.21116 18.9787 5.53513 18.7111 5.00738 18.2425C4.47962 17.7739 4.13391 17.1343 4.03099 16.436L3.33699 16.089C2.90524 15.8731 2.54213 15.5412 2.28833 15.1306C2.03453 14.72 1.90007 14.2468 1.89999 13.764V10.828C1.89999 10.138 2.17399 9.47802 2.66099 8.99002L5.48999 6.16202C5.97739 5.67437 6.63853 5.40028 7.32799 5.40002H12.239C12.876 5.39994 13.4909 5.63373 13.967 6.05702L17.62 9.30402C17.7488 9.41863 17.8976 9.50847 18.059 9.56902L20.413 10.451C20.9086 10.6369 21.3357 10.9696 21.6372 11.4048C21.9386 11.8399 22.1001 12.3567 22.1 12.886V14C22.1002 14.6122 21.8843 15.2048 21.4905 15.6735C21.0966 16.1421 20.5501 16.4568 19.947 16.562C19.8162 17.2478 19.4503 17.8665 18.9124 18.3116C18.3745 18.7566 17.6982 19.0001 17 19ZM12.24 6.60002C12.5829 6.60015 12.9138 6.72612 13.17 6.95402L16.823 10.201C17.063 10.414 17.338 10.581 17.638 10.692L19.991 11.575C20.258 11.675 20.4881 11.8541 20.6505 12.0884C20.8129 12.3227 20.9 12.6009 20.9 12.886V14C20.9001 14.2969 20.8058 14.5862 20.6307 14.826C20.4556 15.0658 20.2088 15.2437 19.926 15.334C19.8478 15.3591 19.7674 15.3772 19.686 15.388C19.506 15.399 19.324 15.4 19.142 15.4H18.697C18.7927 15.6715 18.822 15.962 18.7823 16.2471C18.7426 16.5322 18.6351 16.8036 18.4688 17.0385C18.3025 17.2735 18.0823 17.4652 17.8267 17.5975C17.571 17.7297 17.2873 17.7988 16.9995 17.7988C16.7116 17.7988 16.428 17.7297 16.1723 17.5975C15.9167 17.4652 15.6965 17.2735 15.5302 17.0385C15.3639 16.8036 15.2564 16.5322 15.2167 16.2471C15.177 15.962 15.2062 15.6715 15.302 15.4H8.69699C8.79274 15.6715 8.82199 15.962 8.78229 16.2471C8.74258 16.5322 8.63508 16.8036 8.4688 17.0385C8.30252 17.2735 8.08232 17.4652 7.82666 17.5975C7.571 17.7297 7.28735 17.7988 6.99949 17.7988C6.71164 17.7988 6.42799 17.7297 6.17233 17.5975C5.91667 17.4652 5.69646 17.2735 5.53018 17.0385C5.36391 16.8036 5.2564 16.5322 5.2167 16.2471C5.17699 15.962 5.20624 15.6715 5.30199 15.4H4.64099L3.87399 15.016C3.64146 14.8998 3.44588 14.7211 3.30918 14.5C3.17247 14.2788 3.10004 14.024 3.09999 13.764V10.828C3.09998 10.6442 3.13618 10.4621 3.20653 10.2922C3.27688 10.1224 3.37999 9.96804 3.50999 9.83802L6.33799 7.01002C6.59958 6.74846 6.95407 6.60106 7.32399 6.60002H12.24Z" fill="#150D2C" fill-opacity="0.88"/>
</svg>
