<svg width="24" height="24" viewBox="0 0 24 24" fill="none" xmlns="http://www.w3.org/2000/svg">
<g clip-path="url(#clip0_6_108)">
<path fill-rule="evenodd" clip-rule="evenodd" d="M8.99999 5.90002C8.44304 5.90002 7.9089 6.12127 7.51507 6.5151C7.12124 6.90893 6.89999 7.44307 6.89999 8.00002V12C6.89999 12.2758 6.95431 12.5489 7.05985 12.8037C7.16538 13.0584 7.32007 13.2899 7.51507 13.4849C7.71007 13.68 7.94157 13.8346 8.19636 13.9402C8.45114 14.0457 8.72422 14.1 8.99999 14.1C9.27577 14.1 9.54885 14.0457 9.80363 13.9402C10.0584 13.8346 10.2899 13.68 10.4849 13.4849C10.6799 13.2899 10.8346 13.0584 10.9401 12.8037C11.0457 12.5489 11.1 12.2758 11.1 12V8.00002C11.1 7.72425 11.0457 7.45117 10.9401 7.19639C10.8346 6.94161 10.6799 6.7101 10.4849 6.5151C10.2899 6.3201 10.0584 6.16541 9.80363 6.05988C9.54885 5.95434 9.27577 5.90002 8.99999 5.90002ZM8.09999 8.00002C8.09999 7.76133 8.19481 7.53241 8.3636 7.36363C8.53238 7.19485 8.7613 7.10002 8.99999 7.10002C9.23869 7.10002 9.46761 7.19485 9.63639 7.36363C9.80517 7.53241 9.89999 7.76133 9.89999 8.00002V12C9.89999 12.2387 9.80517 12.4676 9.63639 12.6364C9.46761 12.8052 9.23869 12.9 8.99999 12.9C8.7613 12.9 8.53238 12.8052 8.3636 12.6364C8.19481 12.4676 8.09999 12.2387 8.09999 12V8.00002Z" fill="#150D2C" fill-opacity="0.88"/>
<path fill-rule="evenodd" clip-rule="evenodd" d="M13.6 11.6V18.4H15V19.6H3V18.4H4.4V6.00002C4.4 5.31046 4.67393 4.64914 5.16152 4.16155C5.64912 3.67395 6.31044 3.40002 7 3.40002H11C11.6896 3.40002 12.3509 3.67395 12.8385 4.16155C13.3261 4.64914 13.6 5.31046 13.6 6.00002V10.4H14C14.3414 10.4 14.6795 10.4673 14.995 10.5979C15.3104 10.7286 15.597 10.9201 15.8385 11.1615C16.0799 11.403 16.2714 11.6896 16.4021 12.005C16.5327 12.3205 16.6 12.6586 16.6 13V17C16.6 17.3713 16.7475 17.7274 17.01 17.99C17.2726 18.2525 17.6287 18.4 18 18.4C18.3713 18.4 18.7274 18.2525 18.99 17.99C19.2525 17.7274 19.4 17.3713 19.4 17V11.098C18.7283 11.0722 18.0926 10.7871 17.6265 10.3028C17.1604 9.81836 16.9 9.17226 16.9 8.50002V5.74802L15.576 4.42402L16.424 3.57602L19.84 6.99002C20.3273 7.47759 20.601 8.1387 20.601 8.82802V17C20.601 17.6896 20.3271 18.3509 19.8395 18.8385C19.3519 19.3261 18.6906 19.6 18.001 19.6C17.3114 19.6 16.6501 19.3261 16.1625 18.8385C15.6749 18.3509 15.401 17.6896 15.401 17V13C15.401 12.6287 15.2535 12.2726 14.9909 12.0101C14.7284 11.7475 14.3723 11.6 14.001 11.6H13.6ZM5.6 6.00002C5.6 5.62872 5.7475 5.27263 6.01005 5.01007C6.2726 4.74752 6.6287 4.60002 7 4.60002H11C11.3713 4.60002 11.7274 4.74752 11.9899 5.01007C12.2525 5.27263 12.4 5.62872 12.4 6.00002V18.4H5.6V6.00002ZM19.4 8.82802V9.89602C19.047 9.87074 18.7166 9.7127 18.4754 9.45369C18.2343 9.19469 18.1001 8.85394 18.1 8.50002V6.94802L18.99 7.83802C19.12 7.96804 19.2231 8.12238 19.2935 8.29225C19.3638 8.46211 19.4 8.64417 19.4 8.82802Z" fill="#150D2C" fill-opacity="0.88"/>
</g>
<defs>
<clipPath id="clip0_6_108">
<rect width="24" height="24" fill="white"/>
</clipPath>
</defs>
</svg>
