<svg width="65" height="64" viewBox="0 0 65 64" fill="none" xmlns="http://www.w3.org/2000/svg">
<g clip-path="url(#clip0_7_3937)">
<path d="M20.9205 32.2669H15.5872V34.9336H20.9205V32.2669Z" fill="#FF6E82"/>
<path d="M43.5871 38.6669H32.9204V36.0003H43.5871V38.6669Z" fill="#FF6E82"/>
<path fill-rule="evenodd" clip-rule="evenodd" d="M20.6304 9.33362C17.6241 9.33362 14.9897 11.3457 14.1987 14.2462L12.1209 21.8647L8.55073 19.4847L7.07153 21.7034L11.1231 24.4045L8.91721 28.0808C8.04689 29.5314 7.58715 31.1912 7.58715 32.8827V44.0003C7.58715 47.6821 10.5719 50.6669 14.2538 50.6669C17.9356 50.6669 20.9204 47.6821 20.9204 44.0003V41.3336H27.6529C28.3219 48.0714 34.0067 53.3336 40.9204 53.3336C44.1222 53.3336 47.0603 52.2051 49.3588 50.3242L58.6444 59.6098L60.53 57.7242L51.2444 48.4386C53.1254 46.14 54.2539 43.2019 54.2539 40.0003C54.2539 37.9141 53.7747 35.9399 52.9204 34.1815V32.8827C52.9204 31.1912 52.4608 29.5314 51.5904 28.0808L49.3846 24.4045L53.4361 21.7034L51.9569 19.4847L48.3083 21.917L45.6932 13.9267C44.7966 11.1867 42.2403 9.33362 39.3572 9.33362H20.6304ZM49.4908 29.7858C49.4318 29.6733 49.3694 29.5623 49.3038 29.4528L46.77 25.2299C46.6113 25.2967 46.4369 25.3336 46.2539 25.3336H14.2538C14.0708 25.3336 13.8964 25.2967 13.7376 25.2299L11.2039 29.4528C10.5822 30.489 10.2538 31.6746 10.2538 32.8827V38.6669H27.6529C27.783 37.3575 28.1024 36.1039 28.5835 34.9336H26.2539V32.2669H30.0576C32.4752 28.8773 36.4396 26.6669 40.9204 26.6669C44.1838 26.6669 47.1732 27.8392 49.4908 29.7858ZM45.7478 22.6669H14.6662L16.7714 14.9478C17.246 13.2076 18.8267 12.0003 20.6304 12.0003H39.3572C41.087 12.0003 42.6208 13.1121 43.1588 14.7561L45.7478 22.6669ZM10.2538 44.0003V41.3336H18.2539V44.0003C18.2539 46.2095 16.463 48.0003 14.2538 48.0003C12.0447 48.0003 10.2538 46.2095 10.2538 44.0003ZM40.9204 50.6669C44.2889 50.6669 47.2928 49.1055 49.2476 46.6669H32.5932C34.5481 49.1055 37.552 50.6669 40.9204 50.6669ZM31.0292 44.0003H50.8118C51.3118 42.765 51.5872 41.4147 51.5872 40.0003C51.5872 34.1093 46.8115 29.3336 40.9204 29.3336C35.0294 29.3336 30.2539 34.1093 30.2539 40.0003C30.2539 41.4147 30.5291 42.765 31.0292 44.0003Z" fill="#FF6E82"/>
</g>
<defs>
<clipPath id="clip0_7_3937">
<rect width="64" height="64" fill="white" transform="translate(0.919922)"/>
</clipPath>
</defs>
</svg>
