<svg width="65" height="64" viewBox="0 0 65 64" fill="none" xmlns="http://www.w3.org/2000/svg">
<g clip-path="url(#clip0_7_3923)">
<path d="M39.3675 24.0003H26.0342V28.0003H28.7007V26.6669H35.4628C35.0308 27.0405 34.6334 27.4624 34.2702 27.9094C33.3606 29.0289 32.595 30.3917 31.9793 31.7992C30.7574 34.5921 30.0342 37.7752 30.0342 40.0003H32.7007C32.7007 38.2253 33.311 35.4085 34.4223 32.868C34.9732 31.6088 35.6243 30.4715 36.3398 29.591C37.0633 28.7005 37.7846 28.1555 38.4558 27.9318L39.3675 27.628V24.0003Z" fill="#FF6E82"/>
<path fill-rule="evenodd" clip-rule="evenodd" d="M33.871 6.02848C33.6374 5.60013 33.1885 5.33362 32.7005 5.33362C32.2126 5.33362 31.7637 5.60013 31.5301 6.02848L23.9091 20.0003H8.70056C8.16128 20.0003 7.67509 20.3251 7.46872 20.8234C7.26235 21.3216 7.37641 21.8951 7.75774 22.2765L20.4944 35.0131L14.1116 52.8851C13.926 53.4048 14.0797 53.9851 14.4982 54.3448C14.9167 54.7045 15.5135 54.7691 15.9994 54.5075L32.7005 45.5146L49.4018 54.5075C49.8877 54.7691 50.4845 54.7045 50.9029 54.3448C51.3214 53.9851 51.4752 53.4048 51.2896 52.8851L44.9067 35.0131L57.6434 22.2765C58.0246 21.8951 58.1387 21.3216 57.9325 20.8234C57.7261 20.3251 57.2398 20.0003 56.7006 20.0003H41.492L33.871 6.02848ZM25.871 21.972L32.7005 9.45138L39.5301 21.972C39.7637 22.4005 40.2126 22.6669 40.7006 22.6669H53.4816L42.4245 33.7242C42.06 34.0885 41.9382 34.6301 42.1115 35.1154L47.6114 50.5149L33.3326 42.8263C32.9381 42.6138 32.463 42.6138 32.0685 42.8263L17.7898 50.5149L23.2896 35.1154C23.4629 34.6301 23.3411 34.0885 22.9766 33.7242L11.9195 22.6669H24.7006C25.1885 22.6669 25.6374 22.4005 25.871 21.972Z" fill="#FF6E82"/>
</g>
<defs>
<clipPath id="clip0_7_3923">
<rect width="64" height="64" fill="white" transform="translate(0.700195)"/>
</clipPath>
</defs>
</svg>
