<svg width="24" height="25" viewBox="0 0 24 25" fill="none" xmlns="http://www.w3.org/2000/svg">
<g clip-path="url(#clip0_7_3911)">
<path fill-rule="evenodd" clip-rule="evenodd" d="M14.5074 15.3759C13.2896 16.4018 11.717 17.02 10 17.02C6.13401 17.02 3 13.886 3 10.02C3 6.15403 6.13401 3.02002 10 3.02002C13.866 3.02002 17 6.15403 17 10.02C17 11.737 16.3818 13.3096 15.3559 14.5274L20.8485 20.02L19.9999 20.8685L14.5074 15.3759ZM15.8 10.02C15.8 13.2233 13.2033 15.82 10 15.82C6.79675 15.82 4.2 13.2233 4.2 10.02C4.2 6.81677 6.79675 4.22002 10 4.22002C13.2033 4.22002 15.8 6.81677 15.8 10.02Z" fill="#332E69"/>
</g>
<defs>
<clipPath id="clip0_7_3911">
<rect width="24" height="24" fill="white" transform="translate(0 0.0200195)"/>
</clipPath>
</defs>
</svg>
