<svg width="65" height="64" viewBox="0 0 65 64" fill="none" xmlns="http://www.w3.org/2000/svg">
<g clip-path="url(#clip0_7_3930)">
<path d="M30.3559 39.6093L44.632 25.3331L42.7464 23.4475L29.413 36.7808L22.7464 30.1141L20.8608 31.9997L28.4703 39.6093C28.9909 40.1299 29.8352 40.1299 30.3559 39.6093Z" fill="#FF6E82"/>
<path fill-rule="evenodd" clip-rule="evenodd" d="M32.6213 6.78131C32.2765 6.62807 31.8831 6.62807 31.5383 6.78131C30.3088 7.32769 29.1123 7.9507 27.8842 8.59015C23.5287 10.858 18.7751 13.333 10.7462 13.333C10.0098 13.333 9.41284 13.93 9.41284 14.6664C9.41284 22.9985 10.0761 32.2136 13.1766 39.888C16.3079 47.6387 21.9512 53.8597 31.8005 55.9701C31.9847 56.0096 32.1751 56.0096 32.3592 55.9701C42.2082 53.8597 47.8514 47.6385 50.9824 39.888C54.0829 32.2136 54.7461 22.9985 54.7461 14.6664C54.7461 13.93 54.1491 13.333 53.4128 13.333C45.384 13.333 40.6311 10.8582 36.2757 8.59033C35.0474 7.95081 33.8509 7.32775 32.6213 6.78131ZM15.6491 38.8891C12.9024 32.0902 12.1564 23.8488 12.0853 15.9771C20.0536 15.7056 25.1506 13.041 29.3247 10.8589C30.2839 10.3574 31.1944 9.88139 32.0799 9.4658C32.9653 9.88143 33.8759 10.3575 34.8352 10.859C39.009 13.0411 44.1056 15.7056 52.0736 15.9771C52.0026 23.8488 51.2567 32.0902 48.5099 38.8891C45.6715 45.9152 40.7242 51.3566 32.0799 53.3013C23.4351 51.3566 18.4875 45.915 15.6491 38.8891Z" fill="#FF6E82"/>
</g>
<defs>
<clipPath id="clip0_7_3930">
<rect width="64" height="64" fill="white" transform="translate(0.0800781)"/>
</clipPath>
</defs>
</svg>
