<svg width="64" height="65" viewBox="0 0 64 65" fill="none" xmlns="http://www.w3.org/2000/svg">
<g clip-path="url(#clip0_7_4683)">
<path fill-rule="evenodd" clip-rule="evenodd" d="M45.3334 21.9632C45.3334 29.327 39.3638 35.2966 32.0001 35.2966C24.6363 35.2966 18.6667 29.327 18.6667 21.9632C18.6667 14.5994 24.6363 8.62988 32.0001 8.62988C39.3638 8.62988 45.3334 14.5994 45.3334 21.9632ZM33.7929 32.4797C33.2099 32.5784 32.611 32.6299 32.0001 32.6299C31.3891 32.6299 30.7902 32.5784 30.2073 32.4797C29.7161 31.0323 29.3395 29.4096 29.0817 27.6909C30.0363 27.6504 31.0161 27.6299 32.0006 27.6299C32.9849 27.6299 33.9641 27.6504 34.9185 27.6909C34.6606 29.4096 34.2841 31.0323 33.7929 32.4797ZM36.8779 31.4517C38.3646 30.6859 39.6478 29.5811 40.6259 28.2395C39.7035 28.0853 38.679 27.9597 37.5886 27.8632C37.4105 29.1008 37.1739 30.3053 36.8779 31.4517ZM37.8779 25.2118C39.3606 25.3444 40.751 25.5311 41.9659 25.774C42.4187 24.5906 42.6667 23.3059 42.6667 21.9632C42.6667 20.6206 42.4187 19.3359 41.9659 18.1524C40.751 18.3953 39.3606 18.582 37.8779 18.7147C37.9595 19.7913 38.0001 20.8792 38.0001 21.9632C38.0001 23.0473 37.9595 24.1351 37.8779 25.2118ZM35.2171 18.8916C34.1566 18.9396 33.0758 18.9632 32.0006 18.9632C30.9251 18.9632 29.8438 18.9396 28.783 18.8916C28.7057 19.9022 28.6667 20.9308 28.6667 21.9632C28.6667 22.9957 28.7057 24.0242 28.783 25.0349C29.8438 24.9869 30.9251 24.9632 32.0006 24.9632C33.0758 24.9632 34.1566 24.9869 35.2171 25.0348C35.2945 24.0242 35.3334 22.9956 35.3334 21.9632C35.3334 20.9308 35.2945 19.9022 35.2171 18.8916ZM34.9185 16.2354C33.9641 16.276 32.9849 16.2965 32.0006 16.2965C31.0161 16.2965 30.0363 16.276 29.0817 16.2354C29.3395 14.5168 29.7161 12.8943 30.2073 11.4466C30.7902 11.3479 31.3891 11.2965 32.0001 11.2965C32.611 11.2965 33.2099 11.3479 33.7929 11.4465C34.2841 12.8943 34.6606 14.5168 34.9185 16.2354ZM37.5886 16.0632C38.679 15.9668 39.7035 15.8411 40.6259 15.6871C39.6478 14.3453 38.3646 13.2404 36.8779 12.4747C37.1739 13.6211 37.4105 14.8255 37.5886 16.0632ZM26.4117 27.8632C26.5897 29.1008 26.8262 30.3053 27.1222 31.4517C25.6357 30.6859 24.3523 29.5811 23.3745 28.2395C24.2966 28.0853 25.3212 27.9597 26.4117 27.8632ZM26.0001 21.9632C26.0001 20.8792 26.0406 19.7912 26.1223 18.7146C24.6395 18.5819 23.2491 18.3952 22.0343 18.1523C21.5815 19.3357 21.3334 20.6205 21.3334 21.9632C21.3334 23.3059 21.5815 24.5907 22.0343 25.7742C23.2492 25.5313 24.6395 25.3445 26.1223 25.2119C26.0406 24.1352 26.0001 23.0473 26.0001 21.9632ZM26.4117 16.0631C26.5897 14.8255 26.8262 13.6211 27.1222 12.4747C25.6357 13.2405 24.3523 14.3453 23.3745 15.6869C24.2966 15.8409 25.3212 15.9667 26.4117 16.0631Z" fill="#FF6E82"/>
<path fill-rule="evenodd" clip-rule="evenodd" d="M15.9999 17.9631C13.7908 17.9631 11.9999 19.7539 11.9999 21.9631V37.9631C11.9999 40.1721 13.7908 41.9631 15.9999 41.9631H47.9999C50.209 41.9631 51.9999 40.1721 51.9999 37.9631V21.9631C51.9999 19.7539 50.209 17.9631 47.9999 17.9631V15.2964C51.6818 15.2964 54.6666 18.2812 54.6666 21.9631V37.9631C54.6666 41.6449 51.6818 44.6297 47.9999 44.6297H39.041L41.041 52.6297H47.9999V55.2964H15.9999V52.6297H22.9589L24.9589 44.6297H15.9999C12.318 44.6297 9.33325 41.6449 9.33325 37.9631V21.9631C9.33325 18.2812 12.318 15.2964 15.9999 15.2964V17.9631ZM25.7076 52.6297L27.7077 44.6297H36.2922L38.2922 52.6297H25.7076Z" fill="#FF6E82"/>
</g>
<defs>
<clipPath id="clip0_7_4683">
<rect width="64" height="64" fill="white" transform="translate(0 0.629883)"/>
</clipPath>
</defs>
</svg>
