<svg width="64" height="65" viewBox="0 0 64 65" fill="none" xmlns="http://www.w3.org/2000/svg">
<g clip-path="url(#clip0_7_4666)">
<path fill-rule="evenodd" clip-rule="evenodd" d="M21.7959 9.96338C18.5466 9.96338 15.8754 12.277 15.2615 15.2967H7.99983C7.61333 15.2967 7.24581 15.4644 6.99258 15.7564C6.73933 16.0484 6.62525 16.436 6.67991 16.8186L8.21519 27.5658C8.93791 32.6244 13.1718 36.4178 18.2374 36.6215C20.3277 40.2975 23.8405 43.0346 27.9998 44.1191V49.9634H22.9816C21.4665 49.9634 20.0814 50.8194 19.4039 52.1746C18.074 54.834 20.008 57.9634 22.9816 57.9634H41.0188C43.9924 57.9634 45.9262 54.834 44.5964 52.1746C43.9188 50.8194 42.5337 49.9634 41.0188 49.9634H35.9998V44.1191C40.159 43.0346 43.6716 40.2972 45.7617 36.6215C50.8276 36.418 55.0617 32.6247 55.7844 27.5658L57.3198 16.8186C57.3745 16.436 57.2604 16.0484 57.007 15.7564C56.754 15.4644 56.3862 15.2967 55.9998 15.2967H48.7377C48.1238 12.277 45.4526 9.96338 42.2033 9.96338H21.7959ZM48.782 17.9634L47.7689 30.1202C47.663 31.3914 47.4086 32.6172 47.0241 33.7812C50.1814 33.0903 52.671 30.5028 53.1446 27.1886L54.4625 17.9634H48.782ZM9.53719 17.9634H15.2172L16.2303 30.1202C16.3362 31.3914 16.5904 32.6172 16.9751 33.781C13.818 33.09 11.3285 30.5026 10.8551 27.1886L9.53719 17.9634ZM33.3332 49.9634V44.5746C32.8932 44.6114 32.4484 44.63 31.9996 44.63C31.5508 44.63 31.1062 44.6114 30.6665 44.5746V49.9634H33.3332ZM17.8097 16.9622C17.6154 14.6302 19.4557 12.63 21.7959 12.63H42.2033C44.5436 12.63 46.3838 14.6302 46.1894 16.9622L45.1116 29.8986C44.5433 36.718 38.8425 41.9634 31.9996 41.9634C25.1566 41.9634 19.456 36.718 18.8877 29.8986L17.8097 16.9622ZM21.789 53.3671C22.0148 52.9154 22.4765 52.63 22.9816 52.63H41.0188C41.5238 52.63 41.9854 52.9154 42.2113 53.3671C42.6545 54.2535 42.01 55.2967 41.0188 55.2967H22.9816C21.9904 55.2967 21.3457 54.2535 21.789 53.3671Z" fill="#FF6E82"/>
</g>
<defs>
<clipPath id="clip0_7_4666">
<rect width="64" height="64" fill="white" transform="translate(0 0.629883)"/>
</clipPath>
</defs>
</svg>
