<svg width="64" height="65" viewBox="0 0 64 65" fill="none" xmlns="http://www.w3.org/2000/svg">
<path fill-rule="evenodd" clip-rule="evenodd" d="M47.8123 7.94775C47.5721 7.54385 47.1369 7.29639 46.6667 7.29639C46.1966 7.29639 45.7614 7.54385 45.5211 7.94775L42.7793 12.5539L39.1425 15.6088C38.8409 15.8621 38.6667 16.2359 38.6667 16.6297C38.6667 17.0236 38.8409 17.3973 39.1425 17.6507L42.7793 20.7056L45.5211 25.3117C45.7614 25.7156 46.1966 25.9631 46.6667 25.9631C47.1369 25.9631 47.5721 25.7156 47.8123 25.3117L50.5542 20.7056L54.191 17.6507C54.4926 17.3973 54.6667 17.0236 54.6667 16.6297C54.6667 16.2359 54.4926 15.8621 54.191 15.6088L50.5542 12.5539L47.8123 7.94775ZM44.9553 14.1117L46.6667 11.2365L48.3782 14.1117C48.4545 14.24 48.5521 14.3546 48.6662 14.4507L51.2604 16.6297L48.6662 18.8088C48.5521 18.9048 48.4545 19.0194 48.3782 19.1477L46.6667 22.0229L44.9553 19.1477C44.879 19.0194 44.7814 18.9048 44.6673 18.8088L42.0731 16.6297L44.6673 14.4507C44.7814 14.3546 44.879 14.24 44.9553 14.1117Z" fill="#FF6E82"/>
<path d="M25.6735 12.6299C23.3161 12.6299 21.1854 14.0348 20.2568 16.2017L14.1339 30.4885C13.9238 30.9787 13.4417 31.2966 12.9083 31.2966H10.6667V33.9632H12.9083C14.5085 33.9632 15.9546 33.0096 16.5849 31.539L22.7078 17.2521C23.2163 16.0657 24.3828 15.2965 25.6735 15.2965C27.8758 15.2965 29.431 17.4541 28.7345 19.5435L26.5718 26.0316C25.7085 28.6219 27.6363 31.2966 30.3665 31.2966H41.6337C42.5438 31.2966 43.1862 32.188 42.8985 33.0515L36.6763 51.7182C36.4947 52.2627 35.9854 52.6299 35.4113 52.6299H20.6296C20.4226 52.6299 20.2185 52.5816 20.0333 52.4891L15.8261 50.3856C15.2707 50.1077 14.6582 49.9632 14.0372 49.9632H10.6667V52.6299H14.0372C14.2442 52.6299 14.4484 52.6782 14.6335 52.7707L18.8407 54.8742C19.3962 55.152 20.0086 55.2966 20.6296 55.2966H35.4113C37.1331 55.2966 38.6617 54.195 39.2062 52.5614L45.4284 33.8947C46.2918 31.3046 44.3638 28.6299 41.6337 28.6299H30.3665C29.4563 28.6299 28.8139 27.7384 29.1017 26.8749L31.2643 20.3867C32.5363 16.5707 29.6961 12.6299 25.6735 12.6299Z" fill="#FF6E82"/>
</svg>
